<svg width="106" height="100" viewBox="0 0 106 100" fill="none" xmlns="http://www.w3.org/2000/svg">
<path d="M101.563 59.026L62.2163 96.9944C61.247 97.9301 59.5458 97.3727 59.0908 95.9789L54.798 82.699C54.3628 81.3451 53.3144 80.2301 52.0088 79.6727L37.8448 73.8589C36.5194 73.3214 36.0843 71.6091 37.0338 70.6932L76.4792 32.6054C77.4089 31.7095 79.0707 32.1873 79.5652 33.5014L84.9657 47.5578C85.4404 48.7922 86.4295 49.8077 87.6362 50.3253L100.752 55.8205C102.077 56.4178 102.512 58.1101 101.563 59.026Z" fill="#F36C21" stroke="#1A1D1B" stroke-width="2.8342" stroke-miterlimit="10"/>
<path d="M72.7564 76.6648C72.9344 76.6648 73.1322 76.625 73.3103 76.5453C74.062 76.2467 74.4181 75.3706 74.1214 74.6141L65.6546 53.8081C65.3579 53.0515 64.4875 52.6931 63.7358 52.9918C62.9841 53.2904 62.628 54.1665 62.9247 54.9231L71.3716 75.729C71.6288 76.3064 72.1827 76.6648 72.7564 76.6648Z" fill="white"/>
<path d="M55.3078 59.9809C54.2791 61.0162 53.7846 62.4298 53.8835 63.9828C54.0022 65.4362 54.655 66.8498 55.743 67.9449C56.831 69.0399 58.2356 69.697 59.6796 69.8164C59.8181 69.8363 59.9764 69.8363 60.1148 69.8363C61.4798 69.8363 62.726 69.3386 63.6558 68.4028C64.6845 67.3675 65.179 65.9539 65.0801 64.4009C64.9614 62.9475 64.3086 61.5339 63.2206 60.4388C62.1326 59.3438 60.7281 58.6867 59.284 58.5673C57.741 58.4279 56.3365 58.9456 55.3078 59.9809ZM61.1435 62.5094C61.737 63.1067 62.0931 63.8434 62.1524 64.6C62.2117 65.2769 61.9941 65.8742 61.5787 66.2923C61.1633 66.7105 60.5698 66.9096 59.8972 66.8697C59.1455 66.81 58.4136 66.4516 57.8201 65.8543C57.2266 65.257 56.8706 64.5204 56.8112 63.7638C56.7519 63.0868 56.9695 62.4895 57.3849 62.0714C57.7608 61.6931 58.2751 61.494 58.8686 61.494C58.9279 61.494 59.007 61.494 59.0664 61.494C59.8181 61.5538 60.55 61.9121 61.1435 62.5094Z" fill="white"/>
<path d="M78.316 71.5276C79.681 71.5276 80.9272 71.0298 81.857 70.094C83.9143 68.0234 83.7165 64.4396 81.4218 62.13C79.1271 59.8205 75.5663 59.6214 73.509 61.692C71.4516 63.7627 71.6495 67.3465 73.9442 69.656C75.0322 70.7511 76.4367 71.4081 77.8808 71.5276C78.0391 71.5276 78.1776 71.5276 78.316 71.5276ZM75.5861 63.7826C75.9817 63.3844 76.4961 63.2052 77.0698 63.2052C77.8413 63.2052 78.6919 63.5635 79.3447 64.2206C80.5118 65.3953 80.6899 67.0876 79.7799 68.0035C79.3645 68.4216 78.771 68.6207 78.0984 68.5809C77.3467 68.5211 76.6148 68.1628 76.0213 67.5655C74.8739 66.3908 74.6761 64.6984 75.5861 63.7826Z" fill="white"/>
<path d="M41.3095 75.9134C37.939 78.5917 33.6866 80.1955 29.0613 80.1955C24.842 80.1955 20.9262 78.8654 17.7086 76.5874C16.4641 75.7007 15.3106 74.6763 14.3089 73.5297C11.1823 70.0133 9.28516 65.3502 9.28516 60.2591C9.28516 55.6572 10.8332 51.4222 13.4437 48.0434C13.9294 47.4013 14.4606 46.805 15.0374 46.224C17.9211 43.2886 21.7003 41.2705 25.9348 40.5825C26.9516 40.4143 27.9989 40.3379 29.0765 40.3379C30.1541 40.3379 31.1861 40.4296 32.203 40.5825C32.7039 40.659 33.1896 40.7507 33.6752 40.873C34.5403 41.087 35.3751 41.3469 36.1795 41.6527C36.9536 41.9585 37.6973 42.2948 38.4258 42.6923C39.4123 43.2275 40.3533 43.839 41.2336 44.5423C41.2639 44.5576 41.2791 44.5729 41.3095 44.6034C41.9469 45.108 42.5388 45.6431 43.1156 46.224C45.3618 48.5021 47.0465 51.3152 48.0027 54.4494C48.3563 55.8199 48.5331 57.7756 48.5331 60.2591" stroke="#1A1D1B" stroke-width="2.8342" stroke-miterlimit="10"/>
<path d="M47.9906 78.0392C43.2824 83.0565 36.6159 86.2023 29.2174 86.2023C23.718 86.2023 18.6142 84.4701 14.4204 81.5035C12.7983 80.3487 11.2948 79.0147 9.98923 77.5215C5.91413 72.9422 3.44141 66.8696 3.44141 60.2396C3.44141 54.2467 5.45916 48.7316 8.86167 44.3315C9.49469 43.4953 10.1871 42.7188 10.9388 41.9622C14.6974 38.1395 19.6231 35.5114 25.1423 34.6154C26.4677 34.3964 27.8326 34.2969 29.2372 34.2969C30.6417 34.2969 31.9869 34.4163 33.3123 34.6154C33.9651 34.715 34.5981 34.8344 35.2311 34.9937C36.3587 35.2725 37.4467 35.6109 38.4952 36.0091C39.5041 36.4073 40.4734 36.8454 41.4229 37.363C42.7088 38.0599 43.9353 38.8563 45.0826 39.7721C45.1222 39.792 45.142 39.8119 45.1815 39.8518C46.0124 40.5088 46.7838 41.2056 47.5356 41.9622C50.4633 44.9288 53.034 49.513 54.2803 53.5946" stroke="#1A1D1B" stroke-width="2.8342" stroke-miterlimit="10"/>
<path d="M69.9505 34.7953V34.636V22.1126C69.9505 19.3651 67.9525 17.1152 65.46 17.1152H47.2407H45.9746H43.4425H35.1934H33.1361H30.782H13.3343C10.8615 17.1152 8.84375 19.3452 8.84375 22.1126V34.636V40.9276V41.9629V44.3322" stroke="#1A1D1B" stroke-width="2.8342" stroke-miterlimit="10"/>
<path d="M36.203 58.4068H21.124C20.5621 58.4068 20.1094 57.9512 20.1094 57.3856C20.1094 56.8201 20.5621 56.3645 21.124 56.3645H36.203C36.7649 56.3645 37.2176 56.8201 37.2176 57.3856C37.2176 57.9512 36.7649 58.4068 36.203 58.4068ZM36.203 63.8584H21.124C20.5621 63.8584 20.1094 63.4028 20.1094 62.8372C20.1094 62.2716 20.5621 61.816 21.124 61.816H36.203C36.7649 61.816 37.2176 62.2716 37.2176 62.8372C37.2176 63.4185 36.7649 63.8584 36.203 63.8584ZM28.6166 72.9863C26.4001 72.9863 24.6518 72.4836 23.3562 71.4938C22.0606 70.4883 21.405 69.0901 21.405 67.2676C21.405 66.7806 21.4674 66.2936 21.6079 65.8065C21.7484 65.3195 21.9357 64.8796 22.2011 64.4554C22.4664 64.0312 22.7942 63.6542 23.1845 63.34L25.5571 63.5913C24.9484 64.1255 24.4957 64.7068 24.2147 65.3195C23.9338 65.9322 23.7933 66.5764 23.7933 67.2676C23.7933 68.3831 24.2147 69.2786 25.0733 69.9227C25.9162 70.5826 27.1025 70.8968 28.6323 70.8968C30.0996 70.8968 31.2859 70.5669 32.1912 69.9227C32.8625 69.4357 33.2995 68.7444 33.4869 67.8489C33.6117 67.2991 34.0956 66.9063 34.6576 66.9063H34.6732C35.4381 66.9063 36 67.6133 35.8439 68.3674C35.6878 69.1058 35.4225 69.7499 35.0478 70.2998C34.439 71.1953 33.5805 71.8709 32.4879 72.3265C31.364 72.7506 30.0683 72.9863 28.6166 72.9863ZM28.7103 49.5617C27.1337 49.5617 25.9474 49.9231 25.1669 50.6615C24.5893 51.1956 24.2147 51.8869 24.043 52.7196C23.9337 53.2695 23.4342 53.6622 22.8723 53.6622C22.1074 53.6622 21.5298 52.9395 21.7016 52.1854C21.8264 51.6041 22.045 51.07 22.3104 50.5672C22.8099 49.6403 23.5903 48.9019 24.6362 48.3677C25.682 47.8179 27.0401 47.5508 28.6791 47.5508C30.0995 47.5508 31.3171 47.7707 32.3318 48.1949C33.3308 48.6191 34.0956 49.2475 34.6264 50.0645C35.1571 50.8814 35.4069 51.8869 35.4069 53.0495C35.4069 53.568 35.3444 54.0864 35.2039 54.5891C35.0634 55.0919 34.8605 55.5632 34.5795 56.0031C34.2986 56.443 33.9707 56.8515 33.5961 57.2128L31.442 56.663C31.8791 56.1759 32.2693 55.6103 32.6439 54.9662C33.003 54.3221 33.1903 53.6622 33.1903 52.971C33.1903 51.9498 32.8156 51.1328 32.0508 50.5044C31.3015 49.876 30.1776 49.5617 28.7103 49.5617Z" fill="#1A1D1B"/>
<path d="M39.4859 2.08398C43.383 2.08398 45.8162 6.32481 43.8775 9.72943L41.0883 14.6074C40.3761 15.8418 38.6155 15.8418 37.9034 14.6074L35.1141 9.72943C33.1359 6.34473 35.5889 2.08398 39.4859 2.08398Z" stroke="#1A1D1B" stroke-width="2.8342" stroke-miterlimit="10"/>
<path d="M44.4888 7.99737C45.102 7.67881 45.7944 7.51953 46.4867 7.51953C47.9704 7.51953 49.4343 8.2562 50.2849 9.70963C52.006 12.6563 49.8893 16.3795 46.5065 16.3795L41.6401 16.3994C40.928 16.3994 40.3741 15.9614 40.1367 15.384" stroke="#1A1D1B" stroke-width="2.8342" stroke-miterlimit="10"/>
<path d="M38.673 15.3633C38.4554 15.9606 37.8817 16.4385 37.1498 16.4385L32.2834 16.4185C28.8809 16.3986 26.784 12.6954 28.505 9.74869C29.3556 8.27535 30.8393 7.55859 32.3032 7.55859C33.0549 7.55859 33.8066 7.73778 34.4594 8.11607" stroke="#1A1D1B" stroke-width="2.8342" stroke-miterlimit="10"/>
<path d="M35.2734 35.0342V17.1152H43.5225V38.6778" stroke="#1A1D1B" stroke-width="2.8342" stroke-miterlimit="10"/>
<path d="M8.86328 34.6348H25.1241H33.2941H35.213H43.4621H69.9503V34.794V38.9552" stroke="#1A1D1B" stroke-width="2.8342" stroke-miterlimit="10"/>
<path d="M66.8231 41.9824H47.4961" stroke="#1A1D1B" stroke-width="2.8342" stroke-miterlimit="10"/>
<path d="M10.9206 41.9824H8.86328" stroke="#1A1D1B" stroke-width="2.8342" stroke-miterlimit="10"/>
</svg>
