<svg width="52" height="42" viewBox="0 0 52 42" fill="none" xmlns="http://www.w3.org/2000/svg">
<path d="M49.0282 37.0143H2.97109C1.48538 37.0143 0.371094 35.9 0.371094 34.4143V8.41429C0.371094 7.11429 1.48538 6 2.97109 6H49.0282C50.514 6 51.6282 7.11429 51.6282 8.6V34.6C51.6282 35.9 50.514 37.0143 49.0282 37.0143Z" fill="url(#paint0_linear_10629_153373)"/>
<path d="M46.802 33.8572H31.5734C30.8306 33.8572 30.2734 33.3001 30.2734 32.5572V10.4572C30.2734 9.71437 30.8306 9.15723 31.5734 9.15723H46.802C47.5449 9.15723 48.2877 9.71437 48.2877 10.4572V32.3715C48.2877 33.3001 47.5449 33.8572 46.802 33.8572Z" stroke="white" stroke-miterlimit="10" stroke-linecap="round"/>
<path d="M14.6723 13.4285H4.27232C3.71518 13.4285 3.34375 13.0571 3.34375 12.4999V10.2713C3.34375 9.7142 3.71518 9.34277 4.27232 9.34277H14.6723C15.2295 9.34277 15.6009 9.7142 15.6009 10.2713V12.4999C15.6009 13.0571 15.2295 13.4285 14.6723 13.4285Z" stroke="white" stroke-miterlimit="10" stroke-linecap="round"/>
<path d="M9.10279 41.6575H6.13136C5.75993 41.6575 5.57422 41.4718 5.57422 41.1004V37.0146H9.84565V41.1004C9.65993 41.4718 9.47422 41.6575 9.10279 41.6575Z" fill="#FFD3BB"/>
<path d="M45.3137 41.6575H42.3423C41.9709 41.6575 41.7852 41.4718 41.7852 41.1004V37.0146H46.0566V41.1004C45.8709 41.4718 45.6852 41.6575 45.3137 41.6575Z" fill="#FFD3BB"/>
<path d="M27.1094 6V11.5714" stroke="white" stroke-miterlimit="10" stroke-linecap="round"/>
<path d="M15.7852 31.4434H9.28516" stroke="white" stroke-miterlimit="10" stroke-linecap="round"/>
<path d="M27.1094 13.4287V37.0144" stroke="white" stroke-miterlimit="10" stroke-linecap="round"/>
<path d="M30.457 12.6846L48.2856 30.5131" stroke="white" stroke-miterlimit="10" stroke-linecap="round"/>
<path d="M34.168 9.15723L48.2823 23.0858" stroke="white" stroke-miterlimit="10" stroke-linecap="round"/>
<path d="M41.0391 9.15723L48.2819 16.4001" stroke="white" stroke-miterlimit="10" stroke-linecap="round"/>
<path d="M30.457 19.7432L44.3856 33.8575" stroke="white" stroke-miterlimit="10" stroke-linecap="round"/>
<path d="M30.457 26.8008L37.1427 33.6722" stroke="white" stroke-miterlimit="10" stroke-linecap="round"/>
<path d="M39.1823 26.2424C41.9516 26.2424 44.1965 23.9975 44.1965 21.2282C44.1965 18.4588 41.9516 16.2139 39.1823 16.2139C36.4129 16.2139 34.168 18.4588 34.168 21.2282C34.168 23.9975 36.4129 26.2424 39.1823 26.2424Z" stroke="white" stroke-miterlimit="10" stroke-linecap="round"/>
<path d="M3.34018 31.8141C3.54531 31.8141 3.71161 31.6479 3.71161 31.4427C3.71161 31.2376 3.54531 31.0713 3.34018 31.0713C3.13504 31.0713 2.96875 31.2376 2.96875 31.4427C2.96875 31.6479 3.13504 31.8141 3.34018 31.8141Z" stroke="white" stroke-width="0.656686" stroke-miterlimit="10"/>
<path d="M6.50424 31.8141C6.70938 31.8141 6.87567 31.6479 6.87567 31.4427C6.87567 31.2376 6.70938 31.0713 6.50424 31.0713C6.29911 31.0713 6.13281 31.2376 6.13281 31.4427C6.13281 31.6479 6.29911 31.8141 6.50424 31.8141Z" stroke="white" stroke-width="0.656686" stroke-miterlimit="10"/>
<defs>
<linearGradient id="paint0_linear_10629_153373" x1="25.9997" y1="6" x2="25.9997" y2="37.0143" gradientUnits="userSpaceOnUse">
<stop stop-color="#F36C21"/>
<stop offset="1" stop-color="#FFD6BF"/>
</linearGradient>
</defs>
</svg>
