<svg width="52" height="52" viewBox="0 0 52 52" fill="none" xmlns="http://www.w3.org/2000/svg">
<path d="M31.4419 46C33.7674 46 36.093 46 38.4186 46C38.6124 46 38.8062 46 39 46C38.6124 44.5455 38.6124 43.2727 39 42C30.6667 42 22.3333 42 14 42C14 42.7273 14.1938 43.2727 14.1938 44C14.1938 44.7273 14 45.2727 14 46C14.1938 46 14.3876 46 14.5814 46C18.6512 46 22.9147 46 26.9845 46H31.4419Z" fill="url(#paint0_linear_10629_153410)"/>
<path d="M34.5286 35.3571C33.7857 36.8429 32.2429 41.5143 31.5 43H38C38 43 39.5 40.5 41 39.5C41.7267 39.0155 42.01 38.1702 43.5 38C45.0853 37.8189 47.5 38.5 47.5 38.5C46.9429 36.6429 46.2286 33.5 45.8571 31.6429L45.1143 28.6714C44.7429 27.3714 44.5571 26.0714 44.1857 24.9571C44 24.2143 43.6286 23.4714 42.7 23.4714C42.7 23.4714 42.5143 23.4714 42.5143 23.2857C41.9571 21.2429 38.2429 6.75714 37.1286 2.85714C36.7571 1.55714 36.0143 1 34.7143 1H31L32.8571 5.45714C33.0429 5.45714 33.2286 5.64286 33.2286 5.82857C33.7857 8.24286 37.3143 21.6143 38.0571 24.4C38.0571 24.5857 38.0571 24.7714 37.8714 24.7714C37.1286 25.1429 36.9429 25.8857 37.1286 26.6286C37.3143 27.9286 37.6857 29.2286 38.0571 30.5286C38.2429 31.4571 38.6143 32.5714 38.8 33.5H37.3143C36.0143 33.5 35.0857 34.0571 34.5286 35.3571Z" fill="url(#paint1_linear_10629_153410)"/>
<path d="M29.3437 1C28.0093 1 26.4525 1 25.1181 1C23.5612 1 22.4492 1.92857 22.4492 3.22857C22.4492 4.52857 23.5612 5.45714 25.1181 5.45714C28.0093 5.45714 30.6782 5.45714 33.5694 5.45714C35.1263 5.45714 36.2383 4.52857 36.2383 3.22857C36.2383 1.92857 35.1263 1 33.347 1C32.0126 1 30.6782 1 29.3437 1Z" fill="#F36C21"/>
<path d="M38.8125 33.7988L40.1125 38.8131" stroke="white" stroke-width="0.905357" stroke-miterlimit="10" stroke-linecap="round"/>
<path d="M32.2891 41.7646L38.668 41.9082" stroke="white" stroke-width="0.905357" stroke-miterlimit="10" stroke-linecap="round"/>
<path d="M7.6154 50.8862C3.90112 50.8862 0.929688 47.9148 0.929688 44.0148C0.929688 40.3005 4.08683 37.1434 7.80112 37.3291C11.5154 37.3291 14.4868 40.3005 14.4868 44.2005C14.3011 47.9148 11.3297 50.8862 7.6154 50.8862ZM11.7011 44.2005C11.7011 41.9719 9.84397 40.1148 7.6154 39.9291C5.38683 39.9291 3.52969 41.7862 3.52969 44.0148C3.34397 46.4291 5.20112 48.2862 7.42969 48.2862C9.84397 48.2862 11.7011 46.4291 11.7011 44.2005Z" fill="url(#paint2_linear_10629_153410)"/>
<path d="M44.4748 50.8862C40.7605 50.8862 37.7891 47.9148 37.7891 44.0148C37.7891 40.3005 40.9462 37.1434 44.6605 37.3291C48.3748 37.3291 51.3462 40.3005 51.3462 44.2005C51.1605 47.9148 48.1891 50.8862 44.4748 50.8862ZM48.5605 44.2005C48.5605 41.9719 46.7033 40.1148 44.4748 39.9291C42.2462 39.9291 40.3891 41.7862 40.3891 44.0148C40.2033 46.4291 42.0605 48.2862 44.2891 48.2862C46.7033 48.2862 48.5605 46.4291 48.5605 44.2005Z" fill="url(#paint3_linear_10629_153410)"/>
<path d="M47.4994 37.9515C46.6255 37.5313 45.6447 37.2988 44.6058 37.2988C40.8915 37.1131 37.7344 40.2702 37.7344 43.9845C37.7344 44.6909 37.8319 45.3669 38.0136 46.0002" stroke="white" stroke-width="0.928571" stroke-miterlimit="10" stroke-linecap="round"/>
<path d="M7.6096 46.4278C6.3096 46.4278 5.19531 45.3135 5.19531 44.0135C5.19531 42.7135 6.3096 41.5993 7.6096 41.785C8.9096 41.785 9.83817 42.8993 9.83817 44.1993C9.83817 45.3135 8.72388 46.4278 7.6096 46.4278ZM7.42388 45.1278C7.98103 45.1278 8.35246 44.7564 8.35246 44.1993C8.35246 43.6421 7.98103 43.085 7.42388 43.085C6.86674 43.085 6.49531 43.4564 6.49531 44.0135C6.49531 44.5707 7.05246 45.1278 7.42388 45.1278Z" fill="#FFD4BC"/>
<path d="M44.4143 46.4278C43.1143 46.4278 42 45.3135 42 44.0135C42 42.7135 43.1143 41.5993 44.4143 41.785C45.7143 41.785 46.6429 42.8993 46.6429 44.1993C46.6429 45.3135 45.5286 46.4278 44.4143 46.4278ZM44.2286 45.1278C44.7857 45.1278 45.1571 44.7564 45.1571 44.1993C45.1571 43.6421 44.7857 43.085 44.2286 43.085C43.6714 43.085 43.3 43.4564 43.3 44.0135C43.3 44.5707 43.8571 45.1278 44.2286 45.1278Z" fill="#FFD4BC"/>
<path d="M44.8632 30.3333C44.7944 30.5803 44.9389 30.8363 45.1859 30.9051C45.4329 30.9739 45.6889 30.8294 45.7577 30.5824L44.8632 30.3333ZM26.8389 4.34684C27.3949 7.68306 28.5412 13.5449 35.1509 15.489L35.4129 14.5981C29.394 12.8279 28.3131 7.54367 27.7548 4.19418L26.8389 4.34684ZM35.1509 15.489C35.9571 15.7261 36.7833 15.9147 37.5947 16.091C38.4111 16.2684 39.2065 16.4321 39.9754 16.6229C41.5169 17.0054 42.8735 17.4796 43.9057 18.3075C45.8983 19.9058 46.8976 23.0277 44.8632 30.3333L45.7577 30.5824C47.809 23.2165 46.9511 19.5599 44.4867 17.5831C43.2902 16.6235 41.7683 16.1111 40.199 15.7217C39.4126 15.5266 38.5946 15.358 37.7918 15.1836C36.984 15.0081 36.1852 14.8253 35.4129 14.5981L35.1509 15.489Z" fill="#F36C21"/>
<path d="M37.9375 24.0352L42.4453 23.085" stroke="white" stroke-width="0.928571" stroke-miterlimit="10" stroke-linecap="round"/>
<path d="M0.742188 37.6998C2.41362 36.0283 4.8279 34.9141 7.4279 34.9141C11.6993 34.9141 15.2279 37.6998 16.5279 41.4141" stroke="url(#paint4_linear_10629_153410)" stroke-width="0.905357" stroke-miterlimit="10" stroke-linecap="round"/>
<path d="M15.4102 31.5723C22.5899 31.5723 28.4102 25.752 28.4102 18.5723C28.4102 11.3926 22.5899 5.57227 15.4102 5.57227C8.23045 5.57227 2.41016 11.3926 2.41016 18.5723C2.41016 25.752 8.23045 31.5723 15.4102 31.5723Z" fill="url(#paint5_linear_10629_153410)"/>
<path d="M13.7416 28.042C13.3702 27.8563 13.3702 27.6705 13.3702 27.1134C13.9273 25.0705 14.4845 23.0277 14.8559 20.9848H14.6702C13.3702 20.9848 12.0702 20.9848 10.5845 20.9848C10.2131 20.9848 10.0273 20.7991 10.0273 20.6134C10.0273 20.4277 10.0273 20.242 10.2131 20.0563C11.1416 18.5705 12.0702 17.0848 12.9988 15.4134C14.1131 13.5563 15.4131 11.6991 16.5273 9.84197C16.7131 9.65625 16.8988 9.65625 17.0845 9.65625C17.4559 9.65625 17.6416 10.0277 17.4559 10.3991C17.2702 11.3277 16.8988 12.2563 16.7131 13.1848C16.5273 14.2991 16.1559 15.4134 15.9702 16.5277C15.9702 16.5277 15.9702 16.5277 15.9702 16.7134H16.1559C17.4559 16.7134 18.7559 16.7134 20.0559 16.7134C20.2416 16.7134 20.4273 16.7134 20.6131 16.8991C20.7988 17.0848 20.6131 17.2705 20.6131 17.4562C18.5702 20.7991 16.3416 24.142 14.2988 27.4848C14.2988 27.6705 14.1131 27.6705 13.9273 27.8563C13.9273 28.042 13.7416 28.042 13.7416 28.042Z" fill="white"/>
<defs>
<linearGradient id="paint0_linear_10629_153410" x1="26.5957" y1="1.21763" x2="26.0128" y2="51.0002" gradientUnits="userSpaceOnUse">
<stop stop-color="#F36C21"/>
<stop offset="1" stop-color="#FFD6BF"/>
</linearGradient>
<linearGradient id="paint1_linear_10629_153410" x1="38.9474" y1="2.58167" x2="40.4316" y2="47.4104" gradientUnits="userSpaceOnUse">
<stop stop-color="#F36C21"/>
<stop offset="1" stop-color="#FFD6BF"/>
</linearGradient>
<linearGradient id="paint2_linear_10629_153410" x1="7.70899" y1="0.778887" x2="7.70826" y2="50.8862" gradientUnits="userSpaceOnUse">
<stop stop-color="#F36C21"/>
<stop offset="1" stop-color="#FFD6BF"/>
</linearGradient>
<linearGradient id="paint3_linear_10629_153410" x1="36.0469" y1="1.71133" x2="44.5676" y2="50.8862" gradientUnits="userSpaceOnUse">
<stop stop-color="#F36C21"/>
<stop offset="1" stop-color="#FFD6BF"/>
</linearGradient>
<linearGradient id="paint4_linear_10629_153410" x1="8.63477" y1="23.2328" x2="8.63504" y2="41.4141" gradientUnits="userSpaceOnUse">
<stop stop-color="#F36C21"/>
<stop offset="1" stop-color="#FFD6BF"/>
</linearGradient>
<linearGradient id="paint5_linear_10629_153410" x1="15.4102" y1="3.05924" x2="15.4102" y2="49.8226" gradientUnits="userSpaceOnUse">
<stop stop-color="#F36C21"/>
<stop offset="1" stop-color="#FFD6BF"/>
</linearGradient>
</defs>
</svg>
