<svg width="380" height="81" viewBox="0 0 380 81" fill="none" xmlns="http://www.w3.org/2000/svg">
<g clip-path="url(#clip0_10629_152209)">
<path d="M49.6562 80.5009C67.2295 61.8819 85.4157 46.7413 102.989 42.0354C120.562 37.3295 152.439 37.5341 177.369 46.9459C150.804 32.0098 118.927 27.7131 99.1064 33.8512C79.2855 39.9894 61.7123 57.9945 49.6562 80.5009Z" fill="white"/>
<path d="M151.41 31.1915C167.962 24.235 177.975 12.1634 179.405 7.25289C172.457 10.5266 161.014 10.9358 156.519 8.27591C155.497 7.6621 154.271 7.25289 153.045 7.25289C149.367 7.25289 143.645 7.4575 143.645 7.4575C142.624 3.36543 136.494 0.500977 136.494 0.500977C136.494 0.500977 135.268 8.07131 136.494 10.9358C126.481 14.414 108.908 27.9179 109.929 27.0994C117.49 24.235 143.032 9.09433 165.51 15.8462C165.101 20.7567 151.41 31.1915 151.41 31.1915Z" fill="white"/>
<path d="M59.2585 52.6738C44.3417 64.7454 28.6076 74.9756 0 65.1546C12.056 47.9679 32.6944 32.6227 67.8408 37.3285C84.3923 40.8068 96.0397 31.1904 96.0397 31.1904C84.5966 40.8068 75.81 42.8528 65.593 42.4436C55.3761 42.0344 25.5425 38.5562 12.8734 62.6994C28.8119 68.4283 59.2585 52.6738 59.2585 52.6738Z" fill="white"/>
<path d="M107.688 59.0166V80.5H142.425V75.3849H113.613V59.0166H107.688Z" fill="#414147"/>
<path d="M181.247 59.0166V80.5H145.691V59.0166H181.247ZM150.8 64.1317V75.3849H176.138V64.1317H150.8Z" fill="#414147"/>
<path d="M340.637 59.0166V80.5H305.082V59.0166H340.637ZM309.986 64.1317V75.3849H335.324V64.1317H309.986Z" fill="#414147"/>
<path d="M226.612 59.0166H221.504V80.5H226.612V59.0166Z" fill="#414147"/>
<path d="M301.808 64.1317V59.0166H267.07V80.5H272.996V72.3158H301.808V67.2007H272.996V64.1317H301.808Z" fill="#414147"/>
<path d="M218.437 64.1317V59.0166H184.312V80.5H218.437V67.2007H193.508V72.3158H213.329V75.3849H189.421V64.1317H218.437Z" fill="#414147"/>
<path d="M263.803 75.3849H234.991V64.1317H264.008V59.0166H229.883V80.5H263.803V75.3849Z" fill="#414147"/>
<path d="M378.842 59.2217H373.529L370.055 67.2012H348.804V59.2217H343.695V71.7025H347.578L343.695 80.2959H349.212L352.686 72.3163H373.733V80.2959H378.842V67.815H375.164L378.842 59.2217Z" fill="#414147"/>
</g>
<defs>
<clipPath id="clip0_10629_152209">
<rect width="380" height="80" fill="white" transform="translate(0 0.5)"/>
</clipPath>
</defs>
</svg>
