<svg width="52" height="42" viewBox="0 0 52 42" fill="none" xmlns="http://www.w3.org/2000/svg">
<path d="M41.2465 13.9538C42.0636 13.9538 42.1936 13.5452 42.2122 13.1181V13.0067C42.2313 12.7045 42.3688 12.422 42.5947 12.2204C42.8206 12.0187 43.1169 11.9143 43.4193 11.9295H49.455C49.684 11.9092 49.9146 11.9354 50.1332 12.0063C50.3518 12.0772 50.5539 12.1916 50.7272 12.3424C50.9006 12.4932 51.0418 12.6775 51.1423 12.8842C51.2428 13.0909 51.3006 13.3157 51.3122 13.5452V37.5581C51.3122 38.6538 49.9193 39.5267 48.1922 39.5267H3.86219C2.15362 39.5267 0.742188 38.6538 0.742188 37.5581V13.5452C0.753781 13.3157 0.811562 13.0909 0.91207 12.8842C1.01258 12.6775 1.15375 12.4932 1.32714 12.3424C1.50052 12.1916 1.70256 12.0772 1.92115 12.0063C2.13975 11.9354 2.37041 11.9092 2.59933 11.9295H8.57933C8.88175 11.9143 9.17802 12.0187 9.40396 12.2204C9.6299 12.422 9.76732 12.7045 9.78647 13.0067V13.1181C9.78647 13.5452 9.93504 13.9538 10.7522 13.9538H41.4136" fill="url(#paint0_linear_10629_153454)"/>
<path d="M46.8008 35.1991V17.9648C46.8008 17.3904 46.3352 16.9248 45.7608 16.9248L6.31507 16.9248C5.74069 16.9248 5.27507 17.3904 5.27507 17.9648V35.1991C5.27507 35.7735 5.74069 36.2391 6.31507 36.2391H45.7608C46.3352 36.2391 46.8008 35.7735 46.8008 35.1991Z" stroke="white" stroke-miterlimit="10"/>
<path d="M3.71484 39.5449V41.2721C4.4146 41.4706 5.14355 41.546 5.86913 41.4949C6.6009 41.5501 7.33666 41.4747 8.04199 41.2721V39.5449H3.71484Z" fill="#FFD4BB"/>
<path d="M43.8828 39.5449V41.2721C44.5823 41.4721 45.3115 41.5475 46.0371 41.4949C46.7935 41.5575 47.5549 41.482 48.2842 41.2721V39.5449H43.8828Z" fill="#FFD4BB"/>
<path d="M43.3 12.4155C42.2216 11.5184 40.9504 10.8828 39.5857 10.5583C35.1504 9.48594 30.5884 9.02975 26.0286 9.20263C21.5872 8.98403 17.1369 9.38405 12.8057 10.3912C11.4246 10.6693 10.1426 11.3103 9.09143 12.2483H3C5.02844 10.6796 7.31649 9.47896 9.76 8.7012C15.132 7.47991 20.6319 6.91246 26.14 7.0112C31.6666 6.91142 37.1851 7.47885 42.5757 8.7012C45.0302 9.47994 47.3303 10.6803 49.3729 12.2483L43.3 12.4155Z" fill="#F36C21"/>
<path d="M37.5508 21.0117V29.6846C37.5508 30.6085 36.8018 31.3574 35.8779 31.3574H16.1365C15.2126 31.3574 14.4636 30.6085 14.4636 29.6846V21.0117C14.4636 20.0878 15.2126 19.3389 16.1365 19.3389H35.8779C36.8018 19.3389 37.5508 20.0878 37.5508 21.0117Z" stroke="white"/>
<path d="M40.6159 33.249H37.7188V34.6047H40.6159V33.249Z" fill="white"/>
<path d="M44.5534 33.25H41.6562V34.6057H44.5534V33.25Z" fill="white"/>
<path d="M10.0104 33.25H7.11328V34.6057H10.0104V33.25Z" fill="white"/>
<path d="M13.9479 33.25H11.0508V34.6057H13.9479V33.25Z" fill="white"/>
<defs>
<linearGradient id="paint0_linear_10629_153454" x1="26.0272" y1="11.9229" x2="26.0272" y2="39.5267" gradientUnits="userSpaceOnUse">
<stop stop-color="#F36C21"/>
<stop offset="1" stop-color="#FFD6BF"/>
</linearGradient>
</defs>
</svg>
