<svg width="106" height="100" viewBox="0 0 106 100" fill="none" xmlns="http://www.w3.org/2000/svg">
<path d="M49.9811 58.264H28.7018C26.4908 58.264 24.7119 60.0463 24.7119 62.2616C24.7119 64.4769 26.4908 66.2591 28.7018 66.2591H52.6411C53.3725 66.2591 53.971 65.6595 53.971 64.9266C53.971 64.1937 53.3725 63.5941 52.6411 63.5941H51.0784C51.3942 62.678 51.3776 61.6786 51.0285 60.7958C53.1564 60.2128 54.4033 58.0142 53.8214 55.8822C53.5055 54.6996 52.6577 53.7335 51.5272 53.2505L53.9212 41.2911L54.9186 36.9438H57.9443C58.6757 36.9438 59.2742 36.3442 59.2742 35.6113C59.2742 34.8784 58.6757 34.2788 57.9443 34.2788H53.9544C53.3892 34.2788 52.8738 34.6452 52.6909 35.1949L51.6602 39.6088H48.6346C48.6346 34.462 44.4618 30.2812 39.3249 30.2812C34.1879 30.2812 30.0151 34.462 30.0151 39.6088H26.0253C25.2938 39.6088 24.6953 40.2085 24.6953 40.9414C24.6953 41.0246 24.7119 41.1246 24.7286 41.2079L27.3885 54.533C27.5049 55.1493 28.0535 55.599 28.6852 55.599H49.9645C50.696 55.599 51.2945 56.1986 51.2945 56.9315C51.2945 57.6644 50.7126 58.264 49.9811 58.264ZM28.7018 63.5941C27.9703 63.5941 27.3719 62.9945 27.3719 62.2616C27.3719 61.5287 27.9703 60.9291 28.7018 60.9291C29.4333 60.9291 30.0318 61.5287 30.0318 62.2616C30.0318 62.9945 29.4333 63.5941 28.7018 63.5941ZM43.5641 63.5941H32.4589C32.7582 62.728 32.7582 61.7952 32.4589 60.9291H43.5641C43.2649 61.7952 43.2649 62.728 43.5641 63.5941ZM47.3212 63.5941C46.5898 63.5941 45.9913 62.9945 45.9913 62.2616C45.9913 61.5287 46.5898 60.9291 47.3212 60.9291C48.0527 60.9291 48.6512 61.5287 48.6512 62.2616C48.6512 62.9945 48.0527 63.5941 47.3212 63.5941ZM28.4691 46.2714L27.6711 42.2739H30.4308C30.73 43.2566 31.1789 44.1894 31.7773 45.0222L31.9103 46.2714H28.4691ZM29.799 52.934L29.0011 48.9364H32.1597L32.5587 52.934H29.799ZM38.0115 52.934H35.2352L34.8362 48.9364H38.0281V52.934H38.0115ZM43.4643 52.934H40.6714V48.9364H43.8633L43.4643 52.934ZM39.3415 46.2714C35.6675 46.2714 32.6917 43.2899 32.6917 39.6088C32.6917 35.9278 35.6675 32.9463 39.3415 32.9463C43.0155 32.9463 45.9913 35.9278 45.9913 39.6088C45.9913 43.2899 43.0155 46.2714 39.3415 46.2714ZM48.9006 52.934H46.1409L46.5399 48.9364H49.6985L48.9006 52.934ZM50.2305 46.2714H46.8059L46.9389 45.0222C47.5373 44.1894 47.9862 43.2566 48.2854 42.2739H51.0285L50.2305 46.2714Z" fill="#1A1D1B"/>
<path d="M41.4671 36.6787L38.4248 39.7268L38.0424 39.3437C37.5271 38.8274 36.6792 38.8274 36.1639 39.3437C35.6485 39.8601 35.6485 40.7095 36.1639 41.2259L37.4938 42.5584C38.0092 43.0747 38.857 43.0747 39.3724 42.5584L43.3623 38.5609C43.8776 38.0445 43.8776 37.195 43.3623 36.6787C42.8469 36.1623 41.9824 36.1457 41.4671 36.6787Z" fill="#1A1D1B"/>
<path d="M55.4482 84.2467H24.0279C19.506 84.2467 15.832 80.5656 15.832 76.0351V15.1726C15.832 10.642 19.506 6.96094 24.0279 6.96094H56.7948C61.3166 6.96094 64.9906 10.642 64.9906 15.1726V51.9499" stroke="#1A1D1B" stroke-width="2.82734" stroke-miterlimit="10"/>
<path d="M46.721 12.292H32.7731C31.7424 12.292 30.8945 11.4425 30.8945 10.4098V8.82749C30.8945 7.79479 31.7424 6.94531 32.7731 6.94531H46.721C47.7517 6.94531 48.5996 7.79479 48.5996 8.82749V10.4265C48.5996 11.4592 47.7517 12.292 46.721 12.292Z" stroke="#1A1D1B" stroke-width="2.82734" stroke-miterlimit="10"/>
<path d="M86.6364 93.5599H58.9567C56.7456 93.5599 54.9834 91.6944 55.1164 89.4791L56.8454 61.1965C56.9618 59.1644 58.6408 57.582 60.6856 57.582H84.4586C86.4702 57.582 88.1327 59.1311 88.2823 61.1298L90.4767 89.4124C90.643 91.6611 88.8808 93.5599 86.6364 93.5599Z" fill="#F36C21" stroke="#1A1D1B" stroke-width="2.82734" stroke-miterlimit="10"/>
<path d="M63.7617 57.5802V56.5142C63.7617 51.5173 67.8015 47.4531 72.8054 47.4531C75.2991 47.4531 77.56 48.4692 79.2059 50.1015C80.8517 51.7338 81.8492 53.9991 81.8492 56.5142V57.5802" stroke="#1A1D1B" stroke-width="2.82734" stroke-miterlimit="10"/>
<path d="M59.5703 76.9688V79.0675H62.9617V78.5678H60.1355V76.9688H59.5703Z" fill="white"/>
<path d="M66.7519 76.9688V79.0675H63.2773V76.9688H66.7519ZM63.7761 77.4684V78.5678H66.2531V77.4684H63.7761Z" fill="white"/>
<path d="M82.2987 76.9688V79.0675H78.8242V76.9688H82.2987ZM79.3063 77.4684V78.5678H81.7834V77.4684H79.3063Z" fill="white"/>
<path d="M71.1755 76.9688H70.6758V79.0675H71.1755V76.9688Z" fill="white"/>
<path d="M78.5086 77.4684V76.9688H75.1172V79.0675H75.699V78.2679H78.5086V77.7683H75.699V77.4684H78.5086Z" fill="white"/>
<path d="M70.3757 77.4684V76.9688H67.0508V79.0675H70.3757V77.7683H67.9485V78.2679H69.8769V78.5678H67.5495V77.4684H70.3757Z" fill="white"/>
<path d="M74.8005 78.5678H71.9909V77.4684H74.8171V76.9688H71.4922V79.0675H74.8005V78.5678Z" fill="white"/>
<path d="M86.035 76.9844H85.5197L85.1705 77.7672H83.0925V76.9844H82.5938V78.2003H82.9761L82.5938 79.0498H83.1423L83.4748 78.2669H85.5363V79.0498H86.035V77.8339H85.6693L86.035 76.9844Z" fill="white"/>
</svg>
