<svg width="106" height="100" viewBox="0 0 106 100" fill="none" xmlns="http://www.w3.org/2000/svg">
<path d="M55.9081 53.306L55.7348 34.7718C55.7155 33.197 56.3703 31.703 57.5257 30.6733L76.6097 13.714C78.9591 11.6344 82.3869 11.6748 84.6978 13.8149L102.857 30.6733C103.936 31.6828 104.552 33.1163 104.552 34.6305L104.571 86.1546C104.571 89.7281 101.818 92.6153 98.409 92.6153H62.3978C61.2616 92.6153 60.1832 92.2922 59.2589 91.7269C62.8406 87.5094 60.2087 84.1285 57.8398 82.9333C57.7177 82.886 57.6034 82.8332 57.4979 82.7751C57.6108 82.8226 57.725 82.8754 57.8398 82.9333C60.3746 83.9162 66.2805 82.5636 66.462 78.1735C66.6341 74.01 63.1233 72.9904 60.5657 72.8345C60.1582 72.8313 59.7857 72.8214 59.4659 72.8158C59.7984 72.807 60.1707 72.8105 60.5657 72.8345C63.4749 72.8579 68.1667 72.5449 68.1667 67.9475C68.1667 63.5524 62.3418 62.8953 58.8375 62.8632C58.2098 62.8919 57.6243 62.8919 57.1296 62.8919C57.5741 62.8739 58.1628 62.857 58.8375 62.8632C61.7037 62.7321 65.4502 62.0024 65.4502 57.9409C65.4502 52.5625 58.8643 53.306 55.9081 53.306Z" fill="#F36C21"/>
<path d="M55.9081 53.306L55.7348 34.7718C55.7155 33.197 56.3703 31.703 57.5257 30.6733L76.6097 13.714C78.9591 11.6344 82.3869 11.6748 84.6978 13.8149L102.857 30.6733C103.936 31.6828 104.552 33.1163 104.552 34.6305L104.571 86.1546C104.571 89.7281 101.818 92.6153 98.409 92.6153H62.3978C61.2616 92.6153 60.1832 92.2922 59.2589 91.7269" stroke="#1A1D1B" stroke-width="2.82734" stroke-miterlimit="10"/>
<path d="M47.168 62.9001H60.4748C63.2286 62.9001 65.4624 60.6591 65.4624 57.9335C65.4624 55.2079 63.2093 52.9668 60.4748 52.9668H47.168" stroke="#1A1D1B" stroke-width="2.82734" stroke-miterlimit="10" stroke-linecap="round"/>
<path d="M47.168 72.8122H63.0167C65.7705 72.8122 68.0044 70.5712 68.0044 67.8456C68.0044 65.12 65.7513 62.8789 63.0167 62.8789H47.168" stroke="#1A1D1B" stroke-width="2.82734" stroke-miterlimit="10" stroke-linecap="round"/>
<path d="M47.0156 82.7452H61.5742C64.2317 82.7452 66.4077 80.5849 66.4077 77.94V77.6372C66.4077 74.9923 64.2317 72.832 61.5742 72.832H47.0156" stroke="#1A1D1B" stroke-width="2.82734" stroke-miterlimit="10" stroke-linecap="round"/>
<path d="M44.7031 92.6807H56.8737C59.5313 92.6807 61.7073 90.5204 61.7073 87.8756V87.5727C61.7073 84.9279 59.5313 82.7676 56.8737 82.7676H47.014" stroke="#1A1D1B" stroke-width="2.82734" stroke-miterlimit="10" stroke-linecap="round"/>
<path d="M17.1847 93.649H5.78436C4.55189 93.649 3.53125 92.579 3.53125 91.2868V55.329C3.53125 54.0368 4.55189 52.9668 5.78436 52.9668H17.1847C18.4172 52.9668 19.4378 54.0368 19.4378 55.329V91.2868C19.4378 92.579 18.4172 93.649 17.1847 93.649Z" stroke="#1A1D1B" stroke-width="2.82734" stroke-miterlimit="10" stroke-linecap="round"/>
<path d="M44.7038 92.6784C44.7038 92.6784 25.0614 92.3554 19.7656 87.2676" stroke="#1A1D1B" stroke-width="2.82734" stroke-miterlimit="10" stroke-linecap="round"/>
<path d="M19.707 58.5585C25.022 58.2355 25.0606 54.2783 27.6218 51.0681C30.183 47.858 35.7676 46.9898 37.0386 41.8011C38.3096 36.6123 39.1954 32.9378 41.3523 33.8665C43.5091 34.7953 49.5751 39.3177 42.1611 52.9458H48.1886" stroke="#1A1D1B" stroke-width="2.82734" stroke-miterlimit="10" stroke-linecap="round"/>
<path d="M81.0243 33.3627C83.4173 33.3627 85.3572 31.3289 85.3572 28.82C85.3572 26.3112 83.4173 24.2773 81.0243 24.2773C78.6313 24.2773 76.6914 26.3112 76.6914 28.82C76.6914 31.3289 78.6313 33.3627 81.0243 33.3627Z" fill="white" stroke="#1A1D1B" stroke-width="2.82734" stroke-miterlimit="10"/>
<path d="M91.3074 59.5077H72.7049C72.0116 59.5077 71.4531 58.9222 71.4531 58.1954C71.4531 57.4686 72.0116 56.8831 72.7049 56.8831H91.3074C92.0007 56.8831 92.5591 57.4686 92.5591 58.1954C92.5591 58.9222 92.0007 59.5077 91.3074 59.5077ZM91.3074 66.5135H72.7049C72.0116 66.5135 71.4531 65.928 71.4531 65.2012C71.4531 64.4744 72.0116 63.8889 72.7049 63.8889H91.3074C92.0007 63.8889 92.5591 64.4744 92.5591 65.2012C92.5591 65.928 92.0007 66.5135 91.3074 66.5135ZM81.9484 78.2437C79.2138 78.2437 77.057 77.5977 75.4586 76.3257C73.8603 75.0336 73.0515 73.2367 73.0515 70.8947C73.0515 70.2688 73.1285 69.6429 73.3018 69.0171C73.4751 68.3912 73.7062 67.8259 74.0336 67.2807C74.361 66.7356 74.7654 66.2511 75.2468 65.8473L78.1739 66.1703C77.4229 66.8568 76.8644 67.6038 76.5178 68.3912C76.1712 69.1786 75.9979 70.0064 75.9979 70.8947C75.9979 72.3282 76.5178 73.479 77.577 74.3068C78.6168 75.1547 80.0804 75.5585 81.9676 75.5585C83.7778 75.5585 85.2414 75.1345 86.3583 74.3068C87.1863 73.6809 87.7256 72.7925 87.9566 71.6417C88.1107 70.9351 88.7077 70.4303 89.4009 70.4303H89.4202C90.3638 70.4303 91.0571 71.3389 90.8645 72.308C90.6719 73.2569 90.3446 74.0847 89.8824 74.7913C89.1313 75.9421 88.0722 76.8103 86.7242 77.3958C85.3377 77.9409 83.7585 78.2437 81.9484 78.2437ZM82.0639 48.1409C80.1189 48.1409 78.6554 48.6053 77.6925 49.5542C76.98 50.2406 76.5178 51.129 76.306 52.1991C76.1712 52.9057 75.5549 53.4104 74.8617 53.4104C73.9181 53.4104 73.2055 52.4817 73.4174 51.5126C73.5714 50.7656 73.841 50.0791 74.1684 49.4331C74.7846 48.2419 75.7475 47.293 77.0377 46.6065C78.328 45.8999 80.0034 45.5566 82.0254 45.5566C83.7778 45.5566 85.2799 45.8393 86.5316 46.3844C87.7641 46.9295 88.7077 47.7371 89.3624 48.787C90.0172 49.8369 90.3253 51.129 90.3253 52.623C90.3253 53.2893 90.2483 53.9556 90.0749 54.6016C89.9016 55.2477 89.6513 55.8534 89.3047 56.4187C88.958 56.984 88.5536 57.5089 88.0914 57.9733L85.4339 57.2667C85.9731 56.6408 86.4546 55.914 86.9168 55.0862C87.3597 54.2584 87.5908 53.4104 87.5908 52.5221C87.5908 51.2098 87.1286 50.1599 86.185 49.3523C85.2606 48.5447 83.8741 48.1409 82.0639 48.1409Z" fill="white"/>
</svg>
