<svg width="90" height="90" viewBox="0 0 90 90" fill="none" xmlns="http://www.w3.org/2000/svg">
<g filter="url(#filter0_bd_10664_109031)">
<rect x="25" y="24" width="40" height="40" rx="8" fill="url(#paint0_linear_10664_109031)" shape-rendering="crispEdges"/>
<path d="M34.4714 42.71C34.4714 42.71 45.086 38.3197 48.7673 36.7737C50.1786 36.1554 54.9643 34.1765 54.9643 34.1765C54.9643 34.1765 57.1732 33.3109 56.9891 35.4133C56.9277 36.279 56.4369 39.309 55.9461 42.5864C55.2097 47.2242 54.4121 52.2948 54.4121 52.2948C54.4121 52.2948 54.2894 53.717 53.2464 53.9644C52.2033 54.2117 50.4853 53.0987 50.1786 52.8513C49.9331 52.6658 45.5768 49.8831 43.9816 48.5227C43.5521 48.1517 43.0613 47.4097 44.0429 46.544C46.2518 44.5033 48.8901 41.9681 50.4853 40.3603C51.2216 39.6182 51.9579 37.8868 48.8901 39.9892C44.5338 43.0193 40.2389 45.8638 40.2389 45.8638C40.2389 45.8638 39.2572 46.4821 37.4165 45.9255C35.5757 45.3691 33.4283 44.627 33.4283 44.627C33.4283 44.627 31.9558 43.6995 34.4714 42.71Z" fill="#2B2B2B"/>
<rect x="25.5" y="24.5" width="39" height="39" rx="7.5" stroke="url(#paint1_linear_10664_109031)" shape-rendering="crispEdges"/>
</g>
<defs>
<filter id="filter0_bd_10664_109031" x="0" y="0" width="90" height="90" filterUnits="userSpaceOnUse" color-interpolation-filters="sRGB">
<feFlood flood-opacity="0" result="BackgroundImageFix"/>
<feGaussianBlur in="BackgroundImageFix" stdDeviation="10"/>
<feComposite in2="SourceAlpha" operator="in" result="effect1_backgroundBlur_10664_109031"/>
<feColorMatrix in="SourceAlpha" type="matrix" values="0 0 0 0 0 0 0 0 0 0 0 0 0 0 0 0 0 0 127 0" result="hardAlpha"/>
<feOffset dy="1"/>
<feGaussianBlur stdDeviation="12.5"/>
<feComposite in2="hardAlpha" operator="out"/>
<feColorMatrix type="matrix" values="0 0 0 0 0 0 0 0 0 0 0 0 0 0 0 0 0 0 0.1 0"/>
<feBlend mode="normal" in2="effect1_backgroundBlur_10664_109031" result="effect2_dropShadow_10664_109031"/>
<feBlend mode="normal" in="SourceGraphic" in2="effect2_dropShadow_10664_109031" result="shape"/>
</filter>
<linearGradient id="paint0_linear_10664_109031" x1="25" y1="24" x2="73.8578" y2="48.6056" gradientUnits="userSpaceOnUse">
<stop stop-color="#F3F3F3" stop-opacity="0.4"/>
<stop offset="1" stop-color="#F3F3F3" stop-opacity="0.1"/>
</linearGradient>
<linearGradient id="paint1_linear_10664_109031" x1="25" y1="24" x2="72.5681" y2="47.0805" gradientUnits="userSpaceOnUse">
<stop stop-color="white" stop-opacity="0.5"/>
<stop offset="0.341742" stop-color="white" stop-opacity="0"/>
<stop offset="0.68417" stop-color="#E96224" stop-opacity="0"/>
<stop offset="1" stop-color="#E96224" stop-opacity="0.5"/>
</linearGradient>
</defs>
</svg>
