<svg width="58" height="49" viewBox="0 0 58 49" fill="none" xmlns="http://www.w3.org/2000/svg">
<path d="M51.7754 16.5215H6.33984V41.7728H51.7754V16.5215Z" fill="url(#paint0_linear_10639_94576)"/>
<path d="M53.2584 48.3725H4.8677C4.4983 48.3725 4.12891 48.0065 4.12891 47.6405V43.615C4.12891 42.5171 4.8677 41.7852 5.97588 41.7852H52.5196C53.6278 41.7852 54.3666 42.5171 54.3666 43.615V47.6405C54.3666 47.6405 53.9972 48.3725 53.2584 48.3725Z" fill="url(#paint1_linear_10639_94576)"/>
<path d="M53.6183 16.5185H4.48879C4.11939 16.5185 3.75 16.1525 3.75 15.7865V11.395C3.75 11.029 4.11939 10.6631 4.48879 10.6631H53.6183C53.9877 10.6631 54.3571 11.029 54.3571 11.395V15.7865C54.3571 16.1525 53.9877 16.5185 53.6183 16.5185Z" fill="url(#paint2_linear_10639_94576)" stroke="white" stroke-miterlimit="10"/>
<path d="M41.0519 10.3012H17.4297V5.17771C17.4297 4.44579 18.0681 3.71387 18.7066 3.71387H39.4558C40.0942 3.71387 40.7327 4.44579 40.7327 5.17771V10.3012H41.0519Z" fill="url(#paint3_linear_10639_94576)" stroke="white" stroke-miterlimit="10"/>
<path d="M17.4297 7.00586H41.0519" stroke="white" stroke-miterlimit="10"/>
<path d="M51.7719 23.8535L31.0703 23.8535" stroke="white" stroke-miterlimit="10"/>
<path d="M51.7761 41.335L6.33984 41.335" stroke="white" stroke-miterlimit="10"/>
<path d="M27.2958 23.8525H6.33984" stroke="white" stroke-miterlimit="10"/>
<path d="M51.7812 35.0938L21.332 35.0938" stroke="white" stroke-miterlimit="10"/>
<path d="M22.9626 35.0977H6.33984" stroke="white" stroke-miterlimit="10"/>
<path d="M12.6252 8.10547H6.71484V10.3012H12.6252V8.10547Z" fill="#F36C21" stroke="white" stroke-miterlimit="10" stroke-linecap="round"/>
<path d="M11.8741 8.10447H7.44141V7.00659C7.44141 6.64063 7.8108 6.64062 7.8108 6.64062H11.1354C11.5047 6.64062 11.5047 7.00659 11.5047 7.00659V8.10447H11.8741Z" fill="#F36C21" stroke="white" stroke-miterlimit="10" stroke-linecap="round"/>
<path d="M51.7775 8.10645H45.8672V10.3022H51.7775V8.10645Z" fill="#F36C21" stroke="white" stroke-miterlimit="10" stroke-linecap="round"/>
<path d="M51.0265 8.10545H46.5938V7.00756C46.5938 6.6416 46.9631 6.6416 46.9631 6.6416H50.2877C50.6571 6.6416 50.6571 7.00756 50.6571 7.00756V8.10545H51.0265Z" fill="#F36C21" stroke="white" stroke-miterlimit="10" stroke-linecap="round"/>
<path d="M37.6138 28.9667C37.6138 33.5369 33.8728 37.2497 29.2483 37.2497C24.6237 37.2497 20.8828 33.5369 20.8828 28.9667C20.8828 24.3964 24.6237 20.6836 29.2483 20.6836C33.8728 20.6836 37.6138 24.3964 37.6138 28.9667Z" fill="url(#paint4_linear_10639_94576)" stroke="white"/>
<path d="M43.2773 29.3301H47.7101" stroke="white" stroke-miterlimit="10" stroke-linecap="round"/>
<path d="M11.125 29.3252H15.5577" stroke="white" stroke-miterlimit="10" stroke-linecap="round"/>
<path d="M13.3477 27.1299V31.5214" stroke="white" stroke-miterlimit="10" stroke-linecap="round"/>
<path d="M29.3212 30.366L29.4193 29.783H28.8282H28.8282H28.8282H28.8281H28.8281H28.8281H28.8281H28.8281H28.8281H28.8281H28.8281H28.8281H28.8281H28.8281H28.8281H28.8281H28.8281H28.8281H28.8281H28.8281H28.8281H28.828H28.828H28.828H28.828H28.828H28.828H28.828H28.828H28.828H28.8279H28.8279H28.8279H28.8279H28.8279H28.8279H28.8279H28.8278H28.8278H28.8278H28.8278H28.8278H28.8278H28.8277H28.8277H28.8277H28.8277H28.8277H28.8276H28.8276H28.8276H28.8276H28.8275H28.8275H28.8275H28.8274H28.8274H28.8274H28.8274H28.8273H28.8273H28.8273H28.8272H28.8272H28.8272H28.8271H28.8271H28.827H28.827H28.827H28.8269H28.8269H28.8268H28.8268H28.8268H28.8267H28.8267H28.8266H28.8266H28.8265H28.8265H28.8264H28.8264H28.8263H28.8263H28.8262H28.8261H28.8261H28.826H28.826H28.8259H28.8259H28.8258H28.8257H28.8257H28.8256H28.8255H28.8255H28.8254H28.8253H28.8252H28.8252H28.8251H28.825H28.8249H28.8249H28.8248H28.8247H28.8246H28.8245H28.8245H28.8244H28.8243H28.8242H28.8241H28.824H28.8239H28.8238H28.8237H28.8236H28.8235H28.8234H28.8233H28.8232H28.8231H28.823H28.8229H28.8228H28.8227H28.8226H28.8225H28.8224H28.8222H28.8221H28.822H28.8219H28.8218H28.8216H28.8215H28.8214H28.8212H28.8211H28.821H28.8209H28.8207H28.8206H28.8204H28.8203H28.8202H28.82H28.8199H28.8197H28.8196H28.8194H28.8193H28.8191H28.819H28.8188H28.8186H28.8185H28.8183H28.8182H28.818H28.8178H28.8177H28.8175H28.8173H28.8171H28.8169H28.8168H28.8166H28.8164H28.8162H28.816H28.8158H28.8157H28.8155H28.8153H28.8151H28.8149H28.8147H28.8145H28.8143H28.814H28.8138H28.8136H28.8134H28.8132H28.813H28.8128H28.8125H28.8123H28.8121H28.8119H28.8116H28.8114H28.8112H28.8109H28.8107H28.8104H28.8102H28.81H28.8097H28.8095H28.8092H28.8089H28.8087H28.8084H28.8082H28.8079H28.8076H28.8074H28.8071H28.8068H28.8065H28.8063H28.806H28.8057H28.8054H28.8051H28.8048H28.8045H28.8043H28.804H28.8037H28.8034H28.803H28.8027H28.8024H28.8021H28.8018H28.8015H28.8012H28.8008H28.8005H28.8002H28.7999H28.7995H28.7992H28.7988H28.7985H28.7982H28.7978H28.7975H28.7971H28.7968H28.7964H28.796H28.7957H28.7953H28.795H28.7946H28.7942H28.7938H28.7935H28.7931H28.7927H28.7923H28.7919H28.7915H28.7911H28.7907H28.7903H28.7899H28.7895H28.7891H28.7887H28.7883H28.7879H28.7874H28.787H28.7866H28.7862H28.7857H28.7853H28.7849H28.7844H28.784H28.7835H28.7831H28.7826H28.7822H28.7817H28.7812H28.7808H28.7803H28.7798H28.7793H28.7789H28.7784H28.7779H28.7774H28.7769H28.7764H28.7759H28.7754H28.7749H28.7744H28.7739H28.7734H28.7729H28.7724H28.7718H28.7713H28.7708H28.7702H28.7697H28.7692H28.7686H28.7681H28.7675H28.767H28.7664H28.7659H28.7653H28.7647H28.7642H28.7636H28.763H28.7624H28.7619H28.7613H28.7607H28.7601H28.7595H28.7589H28.7583H28.7577H28.7571H28.7564H28.7558H28.7552H28.7546H28.754H28.7533H28.7527H28.752H28.7514H28.7508H28.7501H28.7495H28.7488H28.7481H28.7475H28.7468H28.7461H28.7455H28.7448H28.7441H28.7434H28.7427H28.742H28.7413H28.7406H28.7399H28.7392H28.7385H28.7378H28.737H28.7363H28.7356H28.7349H28.7341H28.7334H28.7326H28.7319H28.7311H28.7304H28.7296H28.7289H28.7281H28.7273H28.7265H28.7258H28.725H28.7242H28.7234H28.7226H28.7218H28.721H28.7202H28.7194H28.7186H28.7177H28.7169H28.7161H28.7153H28.7144H28.7136H28.7127H28.7119H28.711H28.7102H28.7093H28.7085H28.7076H28.7067H28.7058H28.705H28.7041H28.7032H28.7023H28.7014H28.7005H28.6996H28.6987H28.6977H28.6968H28.6959H28.695H28.694H28.6931H28.6922H28.6912H28.6903H28.6893H28.6883H28.6874H28.6864H28.6854H28.6845H28.6835H28.6825H28.6815H28.6805H28.6795H28.6785H28.6775H28.6765H28.6755H28.6744H28.6734H28.6724H28.6713H28.6703H28.6693H28.6682H28.6672H28.6661H28.665H28.664H28.6629H28.6618H28.6607H28.6596H28.6585H28.6574H28.6563H28.6552H28.6541H28.653H28.6519H28.6508H28.6496H28.6485H28.6474H28.6462H28.6451H28.6439H28.6428H28.6416H28.6404H28.6393H28.6381H28.6369H28.6357H28.6345H28.6333H28.6321H28.6309H28.6297H28.6285H28.6273H28.626H28.6248H28.6236H28.6223H28.6211H28.6198H28.6186H28.6173H28.616H28.6148H28.6135H28.6122H28.6109H28.6096H28.6083H28.607H28.6057H28.6044H28.6031H28.6017H28.5964H28.5911H28.5858H28.5805H28.5752H28.5699H28.5646H28.5593H28.554H28.5487H28.5434H28.5381H28.5328H28.5275H28.5221H28.5168H28.5115H28.5062H28.5009H28.4956H28.4903H28.485H28.4797H28.4744H28.4691H28.4638H28.4585H28.4532H28.4479H28.4426H28.4373H28.432H28.4267H28.4214H28.4161H28.4108H28.4055H28.4002H28.3949H28.3896H28.3843H28.379H28.3737H28.3684H28.3631H28.3578H28.3525H28.3472H28.3419H28.3366H28.3313H28.326H28.3207H28.3154H28.3102H28.3049H28.2996H28.2943H28.289H28.2837H28.2784H28.2731H28.2678H28.2626H28.2573H28.252H28.2467H28.2414H28.2361H28.2309H28.2256H28.2203H28.215H28.2097H28.2045H28.1992H28.1939H28.1886H28.1833H28.1781H28.1728H28.1675H28.1623H28.157H28.1517H28.1464H28.1412H28.1359H28.1306H28.1254H28.1201H28.1148H28.1096H28.1043H28.0991H28.0938H28.0885H28.0833H28.078H28.0728H28.0675H28.0623H28.057H28.0517H28.0465H28.0412H28.036H28.0308H28.0255H28.0203H28.015H28.0098H28.0045H27.9993H27.994H27.9888H27.9836H27.9783H27.9731H27.9679H27.9626H27.9574H27.9522H27.9469H27.9417H27.9365H27.9313H27.926H27.9208H27.9156H27.9104H27.9051H27.8999H27.8947H27.8895H27.8843H27.8791H27.8739H27.8687H27.8634H27.8582H27.853H27.8478H27.8426H27.8374H27.8322H27.827H27.8218H27.8166H27.8114H27.8062H27.8011H27.7959H27.7907H27.7855H27.7803H27.7751H27.7699H27.7648H27.7596H27.7544H27.7492H27.7441H27.7389H27.7337H27.7286H27.7234H27.7182H27.7131H27.7079H27.7027H27.6976H27.6924H27.6873H27.6821H27.677H27.6718H27.6667H27.6615H27.6564H27.6512H27.6461H27.641H27.6358H27.6307H27.6256H27.6204H27.6153H27.6102H27.6051H27.5999H27.5948H27.5897H27.5846H27.5795H27.5743H27.5692H27.5641H27.559H27.5539H27.5488H27.5437H27.5386H27.5335H27.5284H27.5233H27.5182H27.5131H27.5081H27.503H27.4979H27.4928H27.4877H27.4827H27.4776H27.4725H27.4674H27.4624H27.4573H27.4522H27.4472H27.4421H27.4371H27.432H27.427H27.4219H27.4169H27.4118H27.4068H27.4017H27.3967H27.3917H27.3866H27.3816H27.3766H27.3716H27.3665H27.3615H27.3565H27.3515H27.3465H27.3414H27.3364H27.3314H27.3264H27.3214H27.3164H27.3114H27.3064H27.3014H27.2965H27.2915H27.2865H27.2815H27.2765H27.2715H27.2666H27.2616H27.2566H27.2517H27.2467H27.2417H27.2368H27.2318H27.2269H27.2219H27.217H27.212H27.2071H27.2022H27.1972H27.1923H27.1874H27.1824H27.1775H27.1726H27.1677H27.1627H27.1578H27.1529H27.148H27.1431H27.1382H27.1333H27.1284H27.1235H27.1186H27.1137H27.1088H27.104H27.0991H27.0942H27.0893H27.0845H27.0796H27.0747H27.0699H27.065H27.0602H27.0553H27.0505H27.0456H27.0408H27.0359H27.0311H27.0262H27.0214H27.0166H27.0118H27.0069H27.0021H26.9973H26.9925H26.9877H26.9829H26.9781H26.9733H26.9685H26.9637H26.9589H26.9541H26.9493H26.9445H26.9398H26.935H26.9302H26.9255H26.9207H26.9159H26.9112H26.9064H26.9017H26.8969H26.8922H26.8874H26.8827H26.878H26.8732H26.8685H26.8638H26.8591H26.8544H26.8496H26.8449H26.8402H26.8355H26.8308H26.8261H26.8214H26.8167H26.8121H26.8074H26.8027H26.798H26.7934H26.7887H26.784H26.7794H26.7747H26.7701H26.7654H26.7608H26.7561H26.7515H26.7469H26.7422H26.7376H26.733H26.7284H26.7237H26.7191H26.7145H26.7099H26.7053H26.7007H26.6961H26.6915H26.6869H26.6824H26.6778H26.6732H26.6686H26.6641H26.6595H26.655H26.6504H26.6459H26.6413H26.6368H26.6322H26.6277H26.6232H26.6186H26.6141H26.6096H26.6051H26.6006H26.5961H26.5916H26.5871H26.5826H26.5781H26.5736H26.5691H26.5646H26.5601H26.5557H26.5512H26.5467H26.5423H26.5378H26.5334H26.5289H26.5245H26.5201H26.5156H26.5112H26.5068H26.5024H26.4979H26.4935H26.4891H26.4847H26.4803H26.4759H26.4715H26.4671H26.4628H26.4584H26.454H26.4496H26.4453H26.4409H26.4366H26.4322H26.4279H26.4235H26.4192H26.4149H26.4105H26.4062H26.4019H26.3976H26.3933H26.3889H26.3846H26.3803H26.3761H26.3718H26.3675H26.3632H26.3589H26.3547H26.3504H26.3461H26.3419H26.3376H26.3334H26.3291H26.3249H26.3207H26.3174C26.322 29.775 26.3265 29.7672 26.3309 29.7595C26.3655 29.6995 26.3956 29.6501 26.4166 29.6163C26.4272 29.5994 26.4354 29.5864 26.4407 29.5781L26.4465 29.5691L26.4476 29.5675L26.4476 29.5674L26.4477 29.5674L26.4477 29.5673L26.4477 29.5673L26.4478 29.5672L26.4526 29.5599L26.4573 29.5521L27.8949 27.1814L29.6662 24.3737C29.648 24.4484 29.6308 24.5209 29.6148 24.5898C29.5715 24.7756 29.5355 24.9399 29.5102 25.0577C29.4976 25.1167 29.4877 25.1642 29.4808 25.1971L29.473 25.2352L29.4727 25.2366L28.9052 27.468L28.7466 28.0913H29.3897H29.7338V27.6788L29.7338 27.6788L29.7338 28.0913H29.7339H29.734H29.7342H29.7343H29.7346H29.7348H29.7351H29.7355H29.7359H29.7363H29.7368H29.7373H29.7378H29.7384H29.739H29.7397H29.7404H29.7412H29.7419H29.7428H29.7436H29.7445H29.7455H29.7464H29.7475H29.7485H29.7496H29.7507H29.7519H29.7531H29.7543H29.7556H29.7569H29.7583H29.7597H29.7611H29.7626H29.7641H29.7656H29.7672H29.7688H29.7704H29.7721H29.7738H29.7756H29.7773H29.7792H29.781H29.7829H29.7848H29.7868H29.7888H29.7908H29.7929H29.795H29.7971H29.7993H29.8015H29.8037H29.806H29.8083H29.8106H29.813H29.8154H29.8178H29.8203H29.8228H29.8253H29.8279H29.8305H29.8331H29.8358H29.8385H29.8412H29.8439H29.8467H29.8495H29.8524H29.8553H29.8582H29.8611H29.8641H29.8671H29.8701H29.8732H29.8763H29.8794H29.8826H29.8857H29.889H29.8922H29.8955H29.8988H29.9021H29.9055H29.9089H29.9123H29.9157H29.9192H29.9227H29.9262H29.9298H29.9334H29.937H29.9406H29.9443H29.948H29.9517H29.9555H29.9592H29.963H29.9669H29.9707H29.9746H29.9785H29.9825H29.9864H29.9904H29.9944H29.9985H30.0025H30.0066H30.0107H30.0149H30.0191H30.0232H30.0275H30.0317H30.036H30.0403H30.0446H30.0489H30.0533H30.0577H30.0621H30.0665H30.071H30.0754H30.0799H30.0845H30.089H30.0936H30.0982H30.1028H30.1074H30.1121H30.1168H30.1215H30.1262H30.131H30.1357H30.1405H30.1453H30.1502H30.155H30.1599H30.1648H30.1697H30.1747H30.1796H30.1846H30.1896H30.1946H30.1997H30.2047H30.2098H30.2149H30.22H30.2252H30.2303H30.2355H30.2407H30.2459H30.2511H30.2564H30.2616H30.2669H30.2722H30.2776H30.2829H30.2882H30.2936H30.299H30.3044H30.3099H30.3153H30.3208H30.3262H30.3317H30.3372H30.3428H30.3483H30.3539H30.3594H30.365H30.3706H30.3763H30.3819H30.3875H30.3932H30.3989H30.4046H30.4103H30.416H30.4218H30.4275H30.4333H30.4391H30.4449H30.4507H30.4565H30.4624H30.4682H30.4741H30.48H30.4858H30.4918H30.4977H30.5036H30.5095H30.5155H30.5215H30.5274H30.5334H30.5394H30.5455H30.5515H30.5575H30.5636H30.5696H30.5757H30.5818H30.5879H30.594H30.6001H30.6062H30.6124H30.6185H30.6247H30.6308H30.637H30.6432H30.6494H30.6556H30.6618H30.668H30.6742H30.6805H30.6867H30.693H30.6993H30.7055H30.7118H30.7181H30.7244H30.7307H30.737H30.7433H30.7497H30.756H30.7623H30.7687H30.7751H30.7814H30.7878H30.7942H30.8005H30.8069H30.8133H30.8197H30.8261H30.8325H30.839H30.8454H30.8518H30.8582H30.8647H30.8711H30.8776H30.884H30.8905H30.8969H30.9034H30.9099H30.9164H30.9228H30.9293H30.9358H30.9423H30.9488H30.9553H30.9618H30.9683H30.9748H30.9813H30.9878H30.9943H31.0008H31.0073H31.0138H31.0204H31.0269H31.0334H31.0399H31.0465H31.053H31.0595H31.066H31.0726H31.0791H31.0856H31.0922H31.0987H31.1052H31.1118H31.1183H31.1248H31.1313H31.1379H31.1444H31.1509H31.1575H31.164H31.1705H31.177H31.1836H31.1901H31.1966H31.2031H31.2096H31.2161H31.2227H31.2292H31.2357H31.2422H31.2487H31.2552H31.2617H31.2682H31.2747H31.2811H31.2876H31.2941H31.3006H31.307H31.3135H31.32H31.3264H31.3329H31.3393H31.3458H31.3522H31.3587H31.3651H31.3715H31.3779H31.3843H31.3907H31.3971H31.4035H31.4099H31.4163H31.4227H31.4291H31.4354H31.4418H31.4481H31.4545H31.4608H31.4671H31.4735H31.4798H31.4861H31.4924H31.4987H31.505H31.5112H31.5175H31.5238H31.53H31.5362H31.5425H31.5487H31.5549H31.5611H31.5673H31.5735H31.5797H31.5858H31.592H31.5982H31.6043H31.6104H31.6165H31.6226H31.6287H31.6348H31.6409H31.647H31.653H31.659H31.6651H31.6711H31.6771H31.6831H31.6891H31.695H31.701H31.7069H31.7129H31.7188H31.7247H31.7306H31.7365H31.7423H31.7482H31.754H31.7599H31.7657H31.7715H31.7773H31.783H31.7888H31.7945H31.8003H31.806H31.8117H31.8174H31.823H31.8287H31.8343H31.84H31.8456H31.8512H31.8567H31.8623H31.8678H31.8734H31.8789H31.8844H31.8899H31.8953H31.9008H31.9062H31.9116H31.917H31.9224H31.9277H31.9331H31.9384H31.9437H31.949H31.9543H31.9595H31.9648H31.97H31.9752H31.9803H31.9855H31.9906H31.9958H32.0009H32.006H32.011H32.0161H32.0211H32.0261H32.0311H32.036H32.041H32.0459H32.0508H32.0557H32.0605H32.0654H32.0702H32.075H32.0798H32.0845H32.0892H32.0939H32.0986H32.1033H32.1079H32.1126H32.1172H32.1217H32.1263H32.1308H32.1353H32.1398H32.1443H32.1487H32.1531H32.1575H32.1619H32.1662H32.1705H32.1748H32.1791H32.1833H32.1876H32.1911C31.5322 29.0741 30.8741 30.1065 30.2197 31.133L30.2179 31.1358C29.6368 32.0473 29.0586 32.9542 28.4813 33.8249C28.5847 33.3138 28.7185 32.827 28.8574 32.3224L28.8601 32.3126C29.0283 31.7016 29.2038 31.0641 29.3212 30.366ZM30.18 23.5914C30.18 23.5914 30.1797 23.5915 30.1792 23.5917L30.18 23.5914ZM28.0943 34.3455C28.0943 34.3453 28.0963 34.3441 28.1 34.3428C28.0961 34.345 28.0943 34.3457 28.0943 34.3455Z" fill="white" stroke="white"/>
<defs>
<linearGradient id="paint0_linear_10639_94576" x1="29.0576" y1="16.5215" x2="29.0576" y2="41.7728" gradientUnits="userSpaceOnUse">
<stop stop-color="#F36C21"/>
<stop offset="1" stop-color="#FFD6BF"/>
</linearGradient>
<linearGradient id="paint1_linear_10639_94576" x1="29.4353" y1="2.99459" x2="29.2512" y2="48.3725" gradientUnits="userSpaceOnUse">
<stop stop-color="#F36C21"/>
<stop offset="1" stop-color="#FFCEB3"/>
</linearGradient>
<linearGradient id="paint2_linear_10639_94576" x1="29.0535" y1="10.6631" x2="29.0535" y2="16.5185" gradientUnits="userSpaceOnUse">
<stop stop-color="#F36C21"/>
<stop offset="1" stop-color="#F36C21"/>
</linearGradient>
<linearGradient id="paint3_linear_10639_94576" x1="29.2408" y1="3.71387" x2="30.3328" y2="48.6955" gradientUnits="userSpaceOnUse">
<stop stop-color="#F36C21"/>
<stop offset="1" stop-color="#FFD6BF"/>
</linearGradient>
<linearGradient id="paint4_linear_10639_94576" x1="20.2646" y1="2.8054" x2="20.2646" y2="50.5127" gradientUnits="userSpaceOnUse">
<stop stop-color="#F36C21"/>
<stop offset="1" stop-color="#FECDB1"/>
</linearGradient>
</defs>
</svg>
