<svg width="192" height="20" viewBox="0 0 192 20" fill="none" xmlns="http://www.w3.org/2000/svg">
<path d="M0.434659 15V0.454545H9.89489V2.66335H3.0696V6.61222H9.40483V8.82102H3.0696V12.7912H9.9517V15H0.434659ZM12.1166 15L12.1024 12.8835H12.4788C12.7629 12.8835 13.002 12.8196 13.1962 12.6918C13.3903 12.5639 13.5513 12.3509 13.6791 12.0526C13.807 11.7495 13.9064 11.3423 13.9774 10.831C14.0484 10.3196 14.0982 9.68277 14.1266 8.92045L14.3183 4.09091H22.2729V15H19.7871V6.20028H16.655L16.4845 9.71591C16.4419 10.625 16.3401 11.4134 16.1791 12.081C16.0229 12.7438 15.8003 13.2907 15.5115 13.7216C15.2274 14.1525 14.8699 14.4744 14.4391 14.6875C14.0082 14.8958 13.4992 15 12.9121 15H12.1166ZM30.0912 15.2131C28.9974 15.2131 28.0528 14.9858 27.2574 14.5312C26.4667 14.072 25.8582 13.4233 25.4321 12.5852C25.006 11.7424 24.7929 10.7505 24.7929 9.60938C24.7929 8.48722 25.006 7.50237 25.4321 6.65483C25.863 5.80256 26.4643 5.13968 27.2361 4.66619C28.0079 4.18797 28.9146 3.94886 29.9562 3.94886C30.6286 3.94886 31.2631 4.05777 31.8597 4.27557C32.461 4.48864 32.9913 4.82008 33.4506 5.26989C33.9146 5.7197 34.2792 6.29261 34.5443 6.98864C34.8095 7.67992 34.942 8.50379 34.942 9.46023V10.2486H26.0003V8.51562H32.4776C32.4728 8.0232 32.3663 7.58523 32.158 7.2017C31.9496 6.81345 31.6584 6.50805 31.2844 6.28551C30.9151 6.06297 30.4842 5.9517 29.9918 5.9517C29.4662 5.9517 29.0045 6.07955 28.6068 6.33523C28.2091 6.58617 27.899 6.91761 27.6764 7.32955C27.4586 7.73674 27.3473 8.18419 27.3426 8.67188V10.1847C27.3426 10.8191 27.4586 11.3636 27.6906 11.8182C27.9226 12.268 28.247 12.6136 28.6636 12.8551C29.0803 13.0919 29.568 13.2102 30.1267 13.2102C30.5008 13.2102 30.8393 13.1581 31.1423 13.054C31.4454 12.9451 31.7081 12.7865 31.9307 12.5781C32.1532 12.3698 32.3213 12.1117 32.4349 11.804L34.8355 12.0739C34.684 12.7083 34.3952 13.2623 33.969 13.7358C33.5476 14.2045 33.0079 14.5691 32.3497 14.8295C31.6916 15.0852 30.9387 15.2131 30.0912 15.2131ZM37.5171 15V4.09091H40.0881V8.49432H41.0256L44.3069 4.09091H47.4035L43.3623 9.44602L47.4461 15H44.3353L41.3452 10.8878H40.0881V15H37.5171ZM48.7072 6.20028V4.09091H58.2527V6.20028H54.7229V15H52.2371V6.20028H48.7072ZM60.6999 19.0909V4.09091H63.2283V5.89489H63.3775C63.5101 5.62973 63.6971 5.34801 63.9386 5.04972C64.18 4.74669 64.5067 4.48864 64.9187 4.27557C65.3306 4.05777 65.8562 3.94886 66.4954 3.94886C67.3382 3.94886 68.0981 4.1643 68.7752 4.59517C69.457 5.02131 69.9968 5.65341 70.3945 6.49148C70.797 7.32481 70.9982 8.34754 70.9982 9.55966C70.9982 10.7576 70.8017 11.7756 70.4087 12.6136C70.0157 13.4517 69.4807 14.0909 68.8036 14.5312C68.1265 14.9716 67.3595 15.1918 66.5025 15.1918C65.8775 15.1918 65.359 15.0876 64.9471 14.8793C64.5352 14.6709 64.2037 14.42 63.9528 14.1264C63.7066 13.8281 63.5148 13.5464 63.3775 13.2812H63.271V19.0909H60.6999ZM63.2212 9.54545C63.2212 10.2509 63.3207 10.8688 63.5195 11.3991C63.7231 11.9295 64.0143 12.3437 64.3931 12.642C64.7766 12.9356 65.2406 13.0824 65.7852 13.0824C66.3533 13.0824 66.8292 12.9309 67.2127 12.6278C67.5962 12.3201 67.8851 11.901 68.0792 11.3707C68.2781 10.8357 68.3775 10.2273 68.3775 9.54545C68.3775 8.86837 68.2804 8.26705 68.0863 7.74148C67.8922 7.21591 67.6033 6.80398 67.2198 6.50568C66.8363 6.20739 66.3581 6.05824 65.7852 6.05824C65.2359 6.05824 64.7695 6.20265 64.386 6.49148C64.0025 6.7803 63.7113 7.18513 63.5124 7.70597C63.3183 8.2268 63.2212 8.83996 63.2212 9.54545ZM78.3585 15.2131C77.2931 15.2131 76.3698 14.9787 75.5886 14.5099C74.8073 14.0412 74.2013 13.3854 73.7704 12.5426C73.3442 11.6998 73.1312 10.715 73.1312 9.58807C73.1312 8.46117 73.3442 7.47396 73.7704 6.62642C74.2013 5.77888 74.8073 5.12074 75.5886 4.65199C76.3698 4.18324 77.2931 3.94886 78.3585 3.94886C79.4238 3.94886 80.3471 4.18324 81.1283 4.65199C81.9096 5.12074 82.5133 5.77888 82.9394 6.62642C83.3703 7.47396 83.5857 8.46117 83.5857 9.58807C83.5857 10.715 83.3703 11.6998 82.9394 12.5426C82.5133 13.3854 81.9096 14.0412 81.1283 14.5099C80.3471 14.9787 79.4238 15.2131 78.3585 15.2131ZM78.3727 13.1534C78.9503 13.1534 79.4333 12.9948 79.8215 12.6776C80.2098 12.3556 80.4986 11.9247 80.688 11.3849C80.8821 10.8452 80.9792 10.2438 80.9792 9.58097C80.9792 8.91335 80.8821 8.30966 80.688 7.76989C80.4986 7.22538 80.2098 6.79214 79.8215 6.47017C79.4333 6.1482 78.9503 5.98722 78.3727 5.98722C77.7808 5.98722 77.2884 6.1482 76.8954 6.47017C76.5071 6.79214 76.2159 7.22538 76.0218 7.76989C75.8324 8.30966 75.7377 8.91335 75.7377 9.58097C75.7377 10.2438 75.8324 10.8452 76.0218 11.3849C76.2159 11.9247 76.5071 12.3556 76.8954 12.6776C77.2884 12.9948 77.7808 13.1534 78.3727 13.1534ZM84.9658 6.20028V4.09091H94.5113V6.20028H90.9815V15H88.4957V6.20028H84.9658ZM96.9585 19.0909V4.09091H99.4869V5.89489H99.6361C99.7687 5.62973 99.9557 5.34801 100.197 5.04972C100.439 4.74669 100.765 4.48864 101.177 4.27557C101.589 4.05777 102.115 3.94886 102.754 3.94886C103.597 3.94886 104.357 4.1643 105.034 4.59517C105.716 5.02131 106.255 5.65341 106.653 6.49148C107.056 7.32481 107.257 8.34754 107.257 9.55966C107.257 10.7576 107.06 11.7756 106.667 12.6136C106.274 13.4517 105.739 14.0909 105.062 14.5312C104.385 14.9716 103.618 15.1918 102.761 15.1918C102.136 15.1918 101.618 15.0876 101.206 14.8793C100.794 14.6709 100.462 14.42 100.211 14.1264C99.9651 13.8281 99.7734 13.5464 99.6361 13.2812H99.5295V19.0909H96.9585ZM99.4798 9.54545C99.4798 10.2509 99.5793 10.8688 99.7781 11.3991C99.9817 11.9295 100.273 12.3437 100.652 12.642C101.035 12.9356 101.499 13.0824 102.044 13.0824C102.612 13.0824 103.088 12.9309 103.471 12.6278C103.855 12.3201 104.144 11.901 104.338 11.3707C104.537 10.8357 104.636 10.2273 104.636 9.54545C104.636 8.86837 104.539 8.26705 104.345 7.74148C104.151 7.21591 103.862 6.80398 103.478 6.50568C103.095 6.20739 102.617 6.05824 102.044 6.05824C101.495 6.05824 101.028 6.20265 100.645 6.49148C100.261 6.7803 99.9699 7.18513 99.771 7.70597C99.5769 8.2268 99.4798 8.83996 99.4798 9.54545ZM112.998 15.2202C112.306 15.2202 111.684 15.0971 111.13 14.8509C110.581 14.5999 110.145 14.2306 109.823 13.7429C109.506 13.2552 109.347 12.6539 109.347 11.9389C109.347 11.3234 109.461 10.8144 109.688 10.4119C109.915 10.0095 110.225 9.6875 110.618 9.44602C111.011 9.20455 111.454 9.02225 111.947 8.89915C112.444 8.77131 112.957 8.67898 113.488 8.62216C114.127 8.55587 114.645 8.49669 115.043 8.4446C115.441 8.38778 115.73 8.30256 115.91 8.18892C116.094 8.07055 116.187 7.88826 116.187 7.64205V7.59943C116.187 7.06439 116.028 6.65009 115.711 6.35653C115.394 6.06297 114.937 5.91619 114.34 5.91619C113.71 5.91619 113.211 6.0535 112.841 6.32812C112.477 6.60275 112.231 6.92708 112.103 7.30114L109.702 6.96023C109.892 6.29735 110.204 5.74337 110.64 5.2983C111.075 4.84848 111.608 4.51231 112.238 4.28977C112.868 4.0625 113.564 3.94886 114.326 3.94886C114.851 3.94886 115.375 4.01042 115.895 4.13352C116.416 4.25663 116.892 4.46023 117.323 4.74432C117.754 5.02367 118.1 5.40483 118.36 5.88778C118.625 6.37074 118.758 6.97443 118.758 7.69886V15H116.286V13.5014H116.201C116.045 13.8045 115.824 14.0885 115.54 14.3537C115.261 14.6141 114.908 14.8248 114.482 14.9858C114.061 15.142 113.566 15.2202 112.998 15.2202ZM113.665 13.331C114.181 13.331 114.629 13.2292 115.008 13.0256C115.386 12.8172 115.678 12.5426 115.881 12.2017C116.09 11.8608 116.194 11.4891 116.194 11.0866V9.80114C116.113 9.86742 115.976 9.92898 115.782 9.9858C115.592 10.0426 115.379 10.0923 115.143 10.1349C114.906 10.1776 114.671 10.2154 114.439 10.2486C114.207 10.2817 114.006 10.3101 113.836 10.3338C113.452 10.3859 113.109 10.4711 112.806 10.5895C112.503 10.7079 112.264 10.8736 112.089 11.0866C111.913 11.295 111.826 11.5649 111.826 11.8963C111.826 12.3698 111.999 12.7273 112.344 12.9688C112.69 13.2102 113.13 13.331 113.665 13.331ZM129.236 8.48011V10.5895H123.426V8.48011H129.236ZM124.222 4.09091V15H121.743V4.09091H124.222ZM130.919 4.09091V15H128.447V4.09091H130.919ZM138.679 15.2131C137.59 15.2131 136.655 14.974 135.873 14.4957C135.097 14.0175 134.498 13.357 134.076 12.5142C133.66 11.6667 133.451 10.6913 133.451 9.58807C133.451 8.48011 133.665 7.50237 134.091 6.65483C134.517 5.80256 135.118 5.13968 135.895 4.66619C136.676 4.18797 137.599 3.94886 138.665 3.94886C139.55 3.94886 140.334 4.11222 141.015 4.43892C141.702 4.76089 142.249 5.2178 142.656 5.80966C143.063 6.39678 143.295 7.08333 143.352 7.86932H140.895C140.795 7.34375 140.558 6.90578 140.184 6.5554C139.815 6.20028 139.32 6.02273 138.7 6.02273C138.174 6.02273 137.713 6.16477 137.315 6.44886C136.917 6.72822 136.607 7.13068 136.385 7.65625C136.167 8.18182 136.058 8.81155 136.058 9.54545C136.058 10.2888 136.167 10.928 136.385 11.4631C136.603 11.9934 136.908 12.4029 137.301 12.6918C137.699 12.9759 138.165 13.1179 138.7 13.1179C139.079 13.1179 139.417 13.0469 139.716 12.9048C140.019 12.758 140.272 12.5473 140.476 12.2727C140.679 11.9981 140.819 11.6643 140.895 11.2713H143.352C143.291 12.0431 143.063 12.7273 142.67 13.3239C142.277 13.9157 141.742 14.3797 141.065 14.7159C140.388 15.0473 139.593 15.2131 138.679 15.2131ZM145.863 15V4.09091H155.075V15H152.596V6.20028H148.321V15H145.863ZM162.877 15.2131C161.812 15.2131 160.889 14.9787 160.107 14.5099C159.326 14.0412 158.72 13.3854 158.289 12.5426C157.863 11.6998 157.65 10.715 157.65 9.58807C157.65 8.46117 157.863 7.47396 158.289 6.62642C158.72 5.77888 159.326 5.12074 160.107 4.65199C160.889 4.18324 161.812 3.94886 162.877 3.94886C163.943 3.94886 164.866 4.18324 165.647 4.65199C166.428 5.12074 167.032 5.77888 167.458 6.62642C167.889 7.47396 168.104 8.46117 168.104 9.58807C168.104 10.715 167.889 11.6998 167.458 12.5426C167.032 13.3854 166.428 14.0412 165.647 14.5099C164.866 14.9787 163.943 15.2131 162.877 15.2131ZM162.891 13.1534C163.469 13.1534 163.952 12.9948 164.34 12.6776C164.729 12.3556 165.017 11.9247 165.207 11.3849C165.401 10.8452 165.498 10.2438 165.498 9.58097C165.498 8.91335 165.401 8.30966 165.207 7.76989C165.017 7.22538 164.729 6.79214 164.34 6.47017C163.952 6.1482 163.469 5.98722 162.891 5.98722C162.3 5.98722 161.807 6.1482 161.414 6.47017C161.026 6.79214 160.735 7.22538 160.541 7.76989C160.351 8.30966 160.256 8.91335 160.256 9.58097C160.256 10.2438 160.351 10.8452 160.541 11.3849C160.735 11.9247 161.026 12.3556 161.414 12.6776C161.807 12.9948 162.3 13.1534 162.891 13.1534ZM170.687 19.0909V4.09091H173.215V5.89489H173.364C173.497 5.62973 173.684 5.34801 173.925 5.04972C174.167 4.74669 174.493 4.48864 174.905 4.27557C175.317 4.05777 175.843 3.94886 176.482 3.94886C177.325 3.94886 178.085 4.1643 178.762 4.59517C179.444 5.02131 179.984 5.65341 180.381 6.49148C180.784 7.32481 180.985 8.34754 180.985 9.55966C180.985 10.7576 180.788 11.7756 180.395 12.6136C180.002 13.4517 179.467 14.0909 178.79 14.5312C178.113 14.9716 177.346 15.1918 176.489 15.1918C175.864 15.1918 175.346 15.0876 174.934 14.8793C174.522 14.6709 174.19 14.42 173.939 14.1264C173.693 13.8281 173.502 13.5464 173.364 13.2812H173.258V19.0909H170.687ZM173.208 9.54545C173.208 10.2509 173.307 10.8688 173.506 11.3991C173.71 11.9295 174.001 12.3437 174.38 12.642C174.763 12.9356 175.227 13.0824 175.772 13.0824C176.34 13.0824 176.816 12.9309 177.199 12.6278C177.583 12.3201 177.872 11.901 178.066 11.3707C178.265 10.8357 178.364 10.2273 178.364 9.54545C178.364 8.86837 178.267 8.26705 178.073 7.74148C177.879 7.21591 177.59 6.80398 177.207 6.50568C176.823 6.20739 176.345 6.05824 175.772 6.05824C175.223 6.05824 174.756 6.20265 174.373 6.49148C173.989 6.7803 173.698 7.18513 173.499 7.70597C173.305 8.2268 173.208 8.83996 173.208 9.54545ZM182.385 6.20028V4.09091H191.93V6.20028H188.4V15H185.914V6.20028H182.385Z" fill="#2B2B2B"/>
</svg>
