<svg width="106" height="100" viewBox="0 0 106 100" fill="none" xmlns="http://www.w3.org/2000/svg">
<path d="M90.5335 50.8156C89.4761 49.9693 88.3404 49.2214 87.1459 48.5916C83.8759 46.8202 80.1163 45.8164 76.1413 45.8164C63.2961 45.8164 52.8594 56.2872 52.8594 69.2182C52.8594 75.2015 55.0916 80.6534 58.7729 84.8063C59.9673 86.1446 61.3184 87.3452 62.787 88.3884C66.5661 91.0454 71.1677 92.62 76.1413 92.62C88.9865 92.62 99.4233 82.1492 99.4233 69.2182C99.4037 61.7588 95.9378 55.1063 90.5335 50.8156Z" fill="#F36C21" stroke="#1A1D1B" stroke-width="2.82734" stroke-miterlimit="10"/>
<path d="M74.002 77.6216C73.4537 77.6216 72.925 77.4051 72.5334 77.0115L66.2675 70.7132C65.4646 69.8866 65.4842 68.5482 66.3262 67.7413C67.129 66.954 68.4214 66.954 69.2242 67.7413L73.8649 72.4059L82.8527 61.5808C83.5772 60.6755 84.8891 60.518 85.7898 61.2462C86.6905 61.9745 86.8472 63.2932 86.1227 64.1985C86.1032 64.2182 86.0836 64.2576 86.064 64.2773L75.6272 76.8737C75.2552 77.3264 74.7069 77.6019 74.1195 77.6216H74.002Z" fill="white"/>
<path d="M54.3844 77.5639H11.9326C8.76042 77.5639 6.19531 74.9855 6.19531 71.7971V12.7316C6.19531 9.54317 8.76042 6.96484 11.9326 6.96484H78.6062C81.7784 6.96484 84.3435 9.54317 84.3435 12.7316V47.3128" stroke="#1A1D1B" stroke-width="2.82734" stroke-miterlimit="10"/>
<path d="M35.2752 60.6954H15.3808C14.1277 60.6954 13.0898 59.6523 13.0898 58.3926C13.0898 57.133 14.1277 56.0898 15.3808 56.0898H35.2752C36.5284 56.0898 37.5662 57.133 37.5662 58.3926C37.5662 59.6719 36.5284 60.6954 35.2752 60.6954Z" fill="#1A1D1B"/>
<path d="M35.2752 69.4552H15.3808C14.1277 69.4552 13.0898 68.412 13.0898 67.1524C13.0898 65.8927 14.1277 64.8496 15.3808 64.8496H35.2752C36.5284 64.8496 37.5662 65.8927 37.5662 67.1524C37.5662 68.412 36.5284 69.4552 35.2752 69.4552Z" fill="#1A1D1B"/>
<path d="M56.8736 35.9565L45.2816 29.2056L31.8881 35.9565C30.7329 35.9565 29.793 35.0117 29.793 33.8505V9.05128C29.793 7.89004 30.7329 6.94531 31.8881 6.94531H56.8736C58.0289 6.94531 58.9688 7.89004 58.9688 9.05128V33.8505C58.9492 35.0117 58.0093 35.9565 56.8736 35.9565Z" stroke="#1A1D1B" stroke-width="2.82734" stroke-miterlimit="10"/>
</svg>
