<svg width="205" height="44" viewBox="0 0 205 44" fill="none" xmlns="http://www.w3.org/2000/svg">
<g clip-path="url(#clip0_10639_94371)">
<path d="M26.7891 43.9973C36.2693 33.7569 46.0803 25.4296 55.5606 22.8413C65.0409 20.2531 82.2377 20.3656 95.6865 25.5421C81.3558 17.3273 64.159 14.9641 53.4661 18.3401C42.7733 21.716 33.293 31.6188 26.7891 43.9973Z" fill="white"/>
<path d="M81.6821 16.8778C90.6113 13.0518 96.0128 6.41237 96.7845 3.7116C93.0364 5.51211 86.8632 5.73718 84.438 4.27426C83.8869 3.93667 83.2255 3.7116 82.564 3.7116C80.5798 3.7116 77.4932 3.82413 77.4932 3.82413C76.942 1.57349 73.6349 -0.00195312 73.6349 -0.00195312C73.6349 -0.00195312 72.9735 4.16173 73.6349 5.73718C68.2334 7.65022 58.7531 15.0773 59.3043 14.6272C63.383 13.0518 77.1625 4.72439 89.2884 8.43794C89.068 11.1387 81.6821 16.8778 81.6821 16.8778Z" fill="white"/>
<path d="M31.9684 28.6928C23.9212 35.3322 15.433 40.9588 0 35.5573C6.50392 26.1046 17.6377 17.6647 36.5983 20.2529C45.5274 22.166 51.8109 16.877 51.8109 16.877C45.6377 22.166 40.8975 23.2913 35.3857 23.0662C29.8739 22.8411 13.7795 20.9281 6.94486 34.2069C15.5433 37.3578 31.9684 28.6928 31.9684 28.6928Z" fill="white"/>
<path d="M58.0938 32.1816V43.9975H76.8338V41.1842H61.2906V32.1816H58.0938Z" fill="white"/>
<path d="M97.7787 32.1816V43.9975H78.5977V32.1816H97.7787ZM81.3536 34.9949V41.1842H95.0228V34.9949H81.3536Z" fill="white"/>
<path d="M183.763 32.1816V43.9975H164.582V32.1816H183.763ZM167.228 34.9949V41.1842H180.897V34.9949H167.228Z" fill="white"/>
<path d="M122.252 32.1816H119.496V43.9975H122.252V32.1816Z" fill="white"/>
<path d="M162.818 34.9949V32.1816H144.078V43.9975H147.275V39.4962H162.818V36.6829H147.275V34.9949H162.818Z" fill="white"/>
<path d="M117.843 34.9949V32.1816H99.4336V43.9975H117.843V36.6829H104.394V39.4962H115.087V41.1842H102.189V34.9949H117.843Z" fill="white"/>
<path d="M142.315 41.1842H126.772V34.9949H142.425V32.1816H124.016V43.9975H142.315V41.1842Z" fill="white"/>
<path d="M204.375 32.293H201.509L199.634 36.6817H188.17V32.293H185.414V39.1574H187.509L185.414 43.8838H188.39L190.264 39.495H201.619V43.8838H204.375V37.0193H202.39L204.375 32.293Z" fill="white"/>
</g>
<defs>
<clipPath id="clip0_10639_94371">
<rect width="205" height="44" fill="white"/>
</clipPath>
</defs>
</svg>
