<svg width="106" height="100" viewBox="0 0 106 100" fill="none" xmlns="http://www.w3.org/2000/svg">
<path d="M68.3679 65.2049C65.6324 64.4541 63.2877 62.577 61.9199 59.967C60.5522 57.4643 60.1792 54.4788 61.0496 51.6007C61.2983 50.975 60.8009 50.2242 60.1792 50.099C59.5575 49.8487 58.8114 50.3493 58.6871 50.975C57.6924 54.4788 58.0654 58.0899 59.8062 61.2184C61.5469 64.3468 64.389 66.5814 67.7462 67.5825C67.8705 67.5825 67.9949 67.5825 68.1192 67.5825C68.6166 67.5825 69.1139 67.2071 69.3626 66.7066C69.3626 66.0809 68.9896 65.4552 68.3679 65.2049Z" fill="#1A1D1B"/>
<path d="M49.2191 18.6187H15.3986C14.2618 18.6187 13.3203 17.6712 13.3203 16.5271C13.3203 15.383 14.2618 14.4355 15.3986 14.4355H49.2191C50.3559 14.4355 51.2974 15.383 51.2974 16.5271C51.2974 17.6712 50.3559 18.6187 49.2191 18.6187Z" fill="#1A1D1B"/>
<path d="M49.2191 26.5562H15.3986C14.2618 26.5562 13.3203 25.6087 13.3203 24.4646C13.3203 23.3205 14.2618 22.373 15.3986 22.373H49.2191C50.3559 22.373 51.2974 23.3205 51.2974 24.4646C51.2974 25.6087 50.3559 26.5562 49.2191 26.5562Z" fill="#1A1D1B"/>
<path d="M60.6605 6.94531L60.625 7.35648V23.678C60.625 26.717 63.094 29.2198 66.1315 29.2198H81.8161" stroke="#1A1D1B" stroke-width="2.82734" stroke-miterlimit="10"/>
<path d="M81.8125 69.1568V68.8887" stroke="#1A1D1B" stroke-width="2.82734" stroke-miterlimit="10"/>
<path d="M81.7961 81.8133C81.5475 84.6378 79.185 86.8545 76.3252 86.8545H13.7643C10.7446 86.8545 8.25781 84.3697 8.25781 81.3127V12.4871C8.25781 9.44806 10.7269 6.94531 13.7643 6.94531H60.6761L81.8317 29.2019V42.5201" stroke="#1A1D1B" stroke-width="2.82734" stroke-miterlimit="10"/>
<path d="M81.8125 78.5411V75.1445" stroke="#1A1D1B" stroke-width="2.82734" stroke-miterlimit="10"/>
<path d="M70.6419 73.0183C80.148 73.0183 87.8541 65.2627 87.8541 55.6957C87.8541 46.1286 80.148 38.373 70.6419 38.373C61.1359 38.373 53.4297 46.1286 53.4297 55.6957C53.4297 65.2627 61.1359 73.0183 70.6419 73.0183Z" stroke="#1A1D1B" stroke-width="2.82734" stroke-miterlimit="10"/>
<path d="M86.1475 75.5569L83.3764 77.4697L81.8133 75.1457L78.918 70.891L78.9535 70.8732L78.9712 70.8553L81.6357 69.014H81.6535L81.689 68.9961L81.8133 69.157L86.1475 75.5569Z" stroke="#1A1D1B" stroke-width="2.82734" stroke-miterlimit="10"/>
<path d="M95.5806 92.4312C93.1115 94.1295 89.7188 93.486 88.0314 91.0011L81.7966 81.8124L80.6065 80.0605C80.4289 79.7924 80.4999 79.4348 80.7486 79.256L81.7966 78.5231L83.3597 77.4505L84.7452 76.4941L86.1307 75.5377L88.7597 73.7321C89.0261 73.5533 89.3814 73.6249 89.559 73.8751L96.9839 84.8157C98.6891 87.3364 98.0496 90.7329 95.5806 92.4312Z" fill="#F36C21" stroke="#1A1D1B" stroke-width="2.82734" stroke-miterlimit="10"/>
</svg>
