<svg width="40" height="52" viewBox="0 0 40 52" fill="none" xmlns="http://www.w3.org/2000/svg">
<g clip-path="url(#clip0_10629_153022)">
<path d="M1.05859 3.52905C1.05859 2.9719 1.05859 2.22905 1.05859 1.6719C1.05859 1.30047 1.24431 0.929046 1.61574 0.557617C13.8729 0.557617 26.13 0.557617 38.3872 0.557617C38.7586 0.743331 38.9443 1.11476 38.9443 1.6719C38.9443 13.929 38.9443 26.1862 38.9443 38.4433C38.9443 41.229 38.9443 44.2005 38.9443 46.9862C38.9443 47.9148 38.7586 48.1005 37.83 48.1005C37.2729 48.1005 36.53 48.1005 35.7872 48.1005C35.7872 48.8433 35.7872 49.4005 35.7872 50.1433C35.7872 50.5148 35.6015 50.8862 35.23 51.2576C33.1872 51.2576 30.9586 51.2576 28.9157 51.2576C28.5443 51.0719 28.3586 50.7005 28.3586 50.329C28.3586 49.5862 28.3586 49.029 28.3586 48.2862C22.6014 48.2862 17.03 48.2862 11.4586 48.2862C11.4586 49.029 11.4586 49.5862 11.4586 50.329C11.4586 50.7005 11.2729 51.0719 10.9015 51.2576C8.85859 51.2576 6.63002 51.2576 4.58716 51.2576C4.21574 51.0719 4.03002 50.7005 4.03002 50.1433C4.03002 49.4005 4.03002 48.8433 4.03002 48.1005C3.28717 48.1005 2.54431 48.1005 1.98717 48.1005C1.24431 48.1005 1.05859 47.9148 1.05859 47.1719C1.05859 35.4719 1.05859 23.7719 1.05859 12.2576V3.52905Z" fill="url(#paint0_linear_10629_153022)"/>
<path d="M18.9984 39.6051C18.8105 39.5543 18.8923 39.0008 18.8923 39.0008C19.078 37.8865 19.4494 36.9579 19.6351 35.8436C19.6351 35.8436 19.6351 35.8436 19.4494 35.8436C18.7066 35.8436 17.9637 35.8436 17.4066 35.8436C17.4066 35.8436 16.9014 35.9096 17.0282 35.6086C17.1551 35.3075 17.3398 35.0238 17.3398 35.0238L18.5209 33.0579L20.378 30.0865C20.378 30.0865 20.5149 29.8906 20.7352 29.8906C20.9555 29.8906 20.9806 30.136 20.9351 30.2722C20.7494 30.8293 20.5637 31.7579 20.5637 31.7579L20.0958 33.6151H20.378C20.378 33.6151 21.8637 33.6151 22.4209 33.6151C22.6066 33.6151 22.8853 33.6151 22.9209 33.7246C22.9564 33.8342 22.8884 34.028 22.7923 34.1722C21.678 35.8436 20.5637 37.7008 19.4494 39.3722C19.4494 39.3722 19.2409 39.6706 18.9984 39.6051Z" fill="white"/>
<path d="M1.05859 29.7148H8.11574" stroke="white" stroke-miterlimit="10" stroke-linecap="round"/>
<path d="M1.05859 32.8721H8.11574" stroke="white" stroke-miterlimit="10" stroke-linecap="round"/>
<path d="M1.05859 35.8438H8.11574" stroke="white" stroke-miterlimit="10" stroke-linecap="round"/>
<path d="M1.05859 39H8.11574" stroke="white" stroke-miterlimit="10" stroke-linecap="round"/>
<path d="M31.8867 29.7148H38.7581" stroke="white" stroke-miterlimit="10" stroke-linecap="round"/>
<path d="M31.8867 32.8721H38.7581" stroke="white" stroke-miterlimit="10" stroke-linecap="round"/>
<path d="M31.8867 35.8438H38.7581" stroke="white" stroke-miterlimit="10" stroke-linecap="round"/>
<path d="M31.8867 39H38.7581" stroke="white" stroke-miterlimit="10" stroke-linecap="round"/>
<path d="M1.05859 44.0146H38.7586" stroke="white" stroke-miterlimit="10" stroke-linecap="round"/>
<path d="M16.2854 26.3717H8.48538C7.92824 26.3717 7.37109 25.8146 7.37109 25.2574V22.4717C7.37109 21.9146 7.92824 21.3574 8.48538 21.3574H16.2854C16.8425 21.3574 17.3997 21.9146 17.3997 22.4717V25.2574C17.3997 26.0003 17.0282 26.3717 16.2854 26.3717Z" stroke="white" stroke-miterlimit="10" stroke-linecap="round"/>
<path d="M31.5159 26.3717H23.7158C23.1587 26.3717 22.6016 25.8146 22.6016 25.2574V22.4717C22.6016 21.9146 23.1587 21.3574 23.7158 21.3574H31.5159C32.073 21.3574 32.6301 21.9146 32.6301 22.4717V25.2574C32.6301 26.0003 32.073 26.3717 31.5159 26.3717Z" stroke="white" stroke-miterlimit="10" stroke-linecap="round"/>
<path d="M30.9589 17.8288H8.85893C7.93036 17.8288 7.1875 17.0859 7.1875 16.1574V5.75737C7.1875 4.82879 7.93036 4.08594 8.85893 4.08594H30.9589C31.8875 4.08594 32.6304 4.82879 32.6304 5.75737V16.1574C32.6304 17.0859 31.8875 17.8288 30.9589 17.8288Z" stroke="white" stroke-miterlimit="10" stroke-linecap="round"/>
</g>
<defs>
<linearGradient id="paint0_linear_10629_153022" x1="20.0015" y1="0.557617" x2="20.0015" y2="51.2576" gradientUnits="userSpaceOnUse">
<stop stop-color="#F36C21"/>
<stop offset="1" stop-color="#FFD6BF"/>
</linearGradient>
<clipPath id="clip0_10629_153022">
<rect width="40" height="52" fill="white"/>
</clipPath>
</defs>
</svg>
