<svg width="52" height="51" viewBox="0 0 52 51" fill="none" xmlns="http://www.w3.org/2000/svg">
<path d="M37.3279 47.543H3.34219C1.85647 47.543 0.742188 46.4287 0.742188 44.943V4.64297C0.742188 3.15725 1.85647 2.04297 3.34219 2.04297H37.5136C38.9993 2.04297 40.1136 3.15725 40.1136 4.64297V44.7573C39.9279 46.4287 38.8136 47.543 37.3279 47.543Z" fill="url(#paint0_linear_10629_152854)"/>
<path d="M29.3416 21.3573H11.1416C10.5845 21.3573 10.0273 20.8001 10.0273 20.243V8.543C10.2131 7.98585 10.5845 7.42871 11.1416 7.42871H29.3416C29.8988 7.42871 30.4559 7.98585 30.4559 8.543V20.4287C30.4559 20.9859 29.8988 21.3573 29.3416 21.3573Z" stroke="white" stroke-miterlimit="10"/>
<path d="M25.4435 23.0291C25.4435 23.0291 25.4435 22.8434 25.6292 22.8434C26.5578 22.472 37.515 17.0863 38.2578 16.7148C38.4435 16.7148 38.4435 16.7148 38.6292 16.7148C39.9292 17.4577 49.7721 22.1006 51.2578 22.8434C51.4435 22.8434 51.4435 23.0291 51.4435 23.2148C51.4435 28.7863 51.4435 34.172 51.4435 39.7434C51.4435 40.1163 51.1123 40.7197 51.1123 40.7197L50.7007 41.6006C50.1435 42.3434 49.5864 43.0863 49.0292 43.8291C48.2864 44.572 47.5435 45.3148 46.615 45.872C45.8721 46.4291 45.1292 46.8006 44.3864 47.3577C43.6435 47.9148 42.715 48.2863 41.9721 48.6577C40.8578 49.2148 39.7435 49.5863 38.6292 50.1434C38.4435 50.1434 38.2578 50.1434 38.2578 50.1434C36.7721 49.5863 35.2864 49.0291 33.8007 48.2863C32.5007 47.5434 31.2007 46.8006 29.9007 45.872C28.6007 44.9434 27.4864 43.8291 26.5578 42.3434C26.1864 41.972 26.0007 41.4148 25.6292 41.0434C25.4435 40.672 25.2578 40.3006 25.2578 39.9291C25.4435 34.7291 25.4435 23.4006 25.4435 23.0291Z" fill="url(#paint1_linear_10629_152854)" stroke="white" stroke-miterlimit="10"/>
<path d="M8.17031 35.6574H5.94174C5.75603 35.6574 5.57031 35.4717 5.57031 35.2859V30.4574C5.57031 30.2716 5.75603 30.0859 5.94174 30.0859H8.17031C8.35603 30.0859 8.54174 30.2716 8.54174 30.4574V35.2859C8.54174 35.4717 8.35603 35.6574 8.17031 35.6574Z" stroke="white" stroke-miterlimit="10" stroke-linecap="round"/>
<path d="M15.2289 35.6574H13.0003C12.8146 35.6574 12.6289 35.4717 12.6289 35.2859V30.4574C12.6289 30.2716 12.8146 30.0859 13.0003 30.0859H15.2289C15.4146 30.0859 15.6003 30.2716 15.6003 30.4574V35.2859C15.6003 35.4717 15.4146 35.6574 15.2289 35.6574Z" stroke="white" stroke-miterlimit="10" stroke-linecap="round"/>
<path d="M7.0567 39.1855C8.3567 39.1855 9.28527 40.1141 9.28527 41.4141V43.8284H4.82812V41.4141C4.82812 40.2998 5.7567 39.1855 7.0567 39.1855Z" fill="white"/>
<path d="M36.8162 40.5176C36.5202 40.4375 36.649 39.5654 36.649 39.5654C36.9416 37.8096 37.5268 36.3465 37.8195 34.5908C37.8195 34.5908 37.8195 34.5908 37.5268 34.5908C36.3564 34.5908 35.1859 34.5908 34.308 34.5908C34.308 34.5908 33.512 34.6948 33.7119 34.2205C33.9117 33.7461 34.2028 33.2991 34.2028 33.2991L36.0637 30.2015L38.9899 25.5196C38.9899 25.5196 39.2056 25.2109 39.5527 25.2109C39.8998 25.2109 39.9394 25.5975 39.8678 25.8122C39.5752 26.69 39.2826 28.1531 39.2826 28.1531L38.5452 31.0794H38.9899C38.9899 31.0794 41.3309 31.0794 42.2088 31.0794C42.5014 31.0794 42.9406 31.0794 42.9966 31.252C43.0527 31.4246 42.9455 31.73 42.794 31.9572C41.0383 34.5908 39.2826 37.517 37.5268 40.1506C37.5268 40.1506 37.1983 40.6208 36.8162 40.5176Z" fill="white"/>
<defs>
<linearGradient id="paint0_linear_10629_152854" x1="20.4279" y1="2.04297" x2="20.4279" y2="47.543" gradientUnits="userSpaceOnUse">
<stop stop-color="#F36C21"/>
<stop offset="1" stop-color="#FFD6BF"/>
</linearGradient>
<linearGradient id="paint1_linear_10629_152854" x1="37.7043" y1="1.9502" x2="38.3507" y2="50.1434" gradientUnits="userSpaceOnUse">
<stop stop-color="#F36C21"/>
<stop offset="1" stop-color="#FFD6BF"/>
</linearGradient>
</defs>
</svg>
